<svg width="22" height="23" viewBox="0 0 22 23" fill="none" xmlns="http://www.w3.org/2000/svg">
    <path
        d="M15.3083 7.83333C14.935 6.7742 13.9553 6.04844 12.8333 6H9.16667C7.64788 6 6.41667 7.23122 6.41667 8.75C6.41667 10.2688 7.64788 11.5 9.16667 11.5H12.8333C14.3521 11.5 15.5833 12.7312 15.5833 14.25C15.5833 15.7688 14.3521 17 12.8333 17H9.16667C8.04472 16.9516 7.06495 16.2258 6.69167 15.1667"
        stroke="#17766B" stroke-width="1.5" stroke-linecap="round" stroke-linejoin="round" />
    <path
        d="M11.75 3.25C11.75 2.83579 11.4142 2.5 11 2.5C10.5858 2.5 10.25 2.83579 10.25 3.25H11.75ZM10.25 6C10.25 6.41421 10.5858 6.75 11 6.75C11.4142 6.75 11.75 6.41421 11.75 6H10.25ZM11.75 17C11.75 16.5858 11.4142 16.25 11 16.25C10.5858 16.25 10.25 16.5858 10.25 17H11.75ZM10.25 19.75C10.25 20.1642 10.5858 20.5 11 20.5C11.4142 20.5 11.75 20.1642 11.75 19.75H10.25ZM10.25 3.25V6H11.75V3.25H10.25ZM10.25 17V19.75H11.75V17H10.25Z"
        fill="#17766B" />
</svg>