<svg width="72" height="43" viewBox="0 0 72 43" fill="none" xmlns="http://www.w3.org/2000/svg">
    <rect width="72" height="43" rx="6" fill="#4B465C" />
    <rect width="72" height="43" rx="6" fill="white" fill-opacity="0.95" />
    <path
        d="M38.5754 33.4921C45.0713 33.5235 51.0005 28.1457 51.0005 21.6036C51.0005 14.4501 45.0713 9.5049 38.5754 9.50757H32.9846C26.4112 9.5049 21 14.4515 21 21.6036C21 28.147 26.4112 33.5235 32.9846 33.4921H38.5754Z"
        fill="#0079BE" />
    <path
        d="M33.0122 10.499C27.0049 10.501 22.1377 15.4142 22.1357 21.4783C22.1377 27.5417 27.0049 32.4549 33.0122 32.4569C39.0202 32.4549 43.8893 27.5417 43.89 21.4783C43.8893 15.4142 39.0208 10.501 33.0122 10.499ZM26.1184 21.4783C26.1171 20.0762 26.5388 18.7064 27.3284 17.5478C28.1181 16.3892 29.2388 15.4958 30.5443 14.9843V27.9716C29.2387 27.4604 28.1178 26.5672 27.3282 25.4087C26.5385 24.2502 26.1169 22.8803 26.1184 21.4783ZM35.4795 27.9742V14.9836C36.7859 15.4944 37.9076 16.3878 38.6978 17.5467C39.488 18.7057 39.9098 20.0762 39.908 21.4789C39.9095 22.8816 39.4876 24.252 38.6975 25.4109C37.9073 26.5698 36.7857 27.4632 35.4795 27.9742Z"
        fill="white" />
    <path
        d="M38.5754 33.4921C45.0713 33.5235 51.0005 28.1457 51.0005 21.6036C51.0005 14.4501 45.0713 9.5049 38.5754 9.50757H32.9846C26.4112 9.5049 21 14.4515 21 21.6036C21 28.147 26.4112 33.5235 32.9846 33.4921H38.5754Z"
        fill="#0079BE" />
    <path
        d="M33.0122 10.499C27.0049 10.501 22.1377 15.4142 22.1357 21.4783C22.1377 27.5417 27.0049 32.4549 33.0122 32.4569C39.0202 32.4549 43.8893 27.5417 43.89 21.4783C43.8893 15.4142 39.0208 10.501 33.0122 10.499ZM26.1184 21.4783C26.1171 20.0762 26.5388 18.7064 27.3284 17.5478C28.1181 16.3892 29.2388 15.4958 30.5443 14.9843V27.9716C29.2387 27.4604 28.1178 26.5672 27.3282 25.4087C26.5385 24.2502 26.1169 22.8803 26.1184 21.4783ZM35.4795 27.9742V14.9836C36.7859 15.4944 37.9076 16.3878 38.6978 17.5467C39.488 18.7057 39.9098 20.0762 39.908 21.4789C39.9095 22.8816 39.4876 24.252 38.6975 25.4109C37.9073 26.5698 36.7857 27.4632 35.4795 27.9742Z"
        fill="white" />
</svg>