<svg width="12" height="18" viewBox="0 0 12 18" fill="none" xmlns="http://www.w3.org/2000/svg">
    <path
        d="M5 17.5V15.5H3V13.5H5V11.4C3.68333 11.1667 2.604 10.5373 1.762 9.512C0.920001 8.48667 0.499334 7.29933 0.500001 5.95C0.500001 4.43333 1.03767 3.146 2.113 2.088C3.18833 1.03 4.484 0.500667 6 0.5C7.51667 0.5 8.81267 1.02933 9.888 2.088C10.9633 3.14667 11.5007 4.434 11.5 5.95C11.5 7.3 11.079 8.48767 10.237 9.513C9.395 10.5383 8.316 11.1673 7 11.4V13.5H9V15.5H7V17.5H5ZM6 9.5C6.96667 9.5 7.79167 9.15833 8.475 8.475C9.15833 7.79167 9.5 6.96667 9.5 6C9.5 5.03333 9.15833 4.20833 8.475 3.525C7.79167 2.84167 6.96667 2.5 6 2.5C5.03333 2.5 4.20833 2.84167 3.525 3.525C2.84167 4.20833 2.5 5.03333 2.5 6C2.5 6.96667 2.84167 7.79167 3.525 8.475C4.20833 9.15833 5.03333 9.5 6 9.5Z"
        fill="#17766B" />
</svg>