<svg id="Layer_1" data-name="Layer 1" xmlns="http://www.w3.org/2000/svg"
    xmlns:xlink="http://www.w3.org/1999/xlink" viewBox="0 0 100 100">
    <defs>
        <style>.folder-empty-cls-1{fill:#11564b;}.folder-empty-cls-2{fill:url(#linear-gradient);}</style>
        <linearGradient id="linear-gradient" x1="44.73" y1="82.74" x2="44.73" y2="34.3"
            gradientUnits="userSpaceOnUse">
            <stop offset="0" stop-color="#11564b" />
            <stop offset="0.08" stop-color="#125d52" />
            <stop offset="0.29" stop-color="#156b60" />
            <stop offset="0.56" stop-color="#177368" />
            <stop offset="1" stop-color="#17766b" />
        </linearGradient>
    </defs>
    <path class="folder-empty-cls-1"
        d="M31.87,41.64H55.58a4.24,4.24,0,0,0,3.87-2.38l0-.07c1-2.23.18-4.94,5.78-4.94h13.4a4.63,4.63,0,0,1,4.63,4.63V78.06a4.63,4.63,0,0,1-4.63,4.63H31.87a4.63,4.63,0,0,1-4.63-4.63V46.27A4.63,4.63,0,0,1,31.87,41.64Z" />
    <rect class="folder-empty-cls-1" x="21.05" y="36.5" width="37.2" height="45.81" rx="4.87" />
    <path class="folder-empty-cls-1"
        d="M23.35,41.7H47.06a4.21,4.21,0,0,0,3.86-2.39l0-.07c1-2.23.19-4.94,5.78-4.94H70.14a4.63,4.63,0,0,1,4.63,4.63V78.12a4.62,4.62,0,0,1-4.63,4.62H23.35a4.62,4.62,0,0,1-4.63-4.62V46.32A4.62,4.62,0,0,1,23.35,41.7Z" />
    <path class="folder-empty-cls-2"
        d="M21.34,41.7H45.15a4.16,4.16,0,0,0,3.79-2.46h0c1-2.23.18-4.94,5.78-4.94H68.13a4.64,4.64,0,0,1,4.63,4.63V78.12a4.63,4.63,0,0,1-4.63,4.62H21.34a4.62,4.62,0,0,1-4.63-4.62V46.32A4.62,4.62,0,0,1,21.34,41.7Z" />
</svg>