<svg width="22" height="22" viewBox="0 0 22 22" fill="none" xmlns="http://www.w3.org/2000/svg">
    <ellipse cx="14.6666" cy="5.5" rx="4.58333" ry="2.75" stroke="var(--income-icon)"
        stroke-width="1.5"
        stroke-linecap="round" stroke-linejoin="round" />
    <ellipse cx="14.6666" cy="5.5" rx="4.58333" ry="2.75" stroke="white" stroke-opacity="0.2"
        stroke-width="1.5" stroke-linecap="round" stroke-linejoin="round" />
    <path
        d="M10.0833 5.5V9.16667C10.0833 10.6856 12.1357 11.9167 14.6666 11.9167C17.1975 11.9167 19.2499 10.6856 19.2499 9.16667V5.5"
        stroke="var(--income-icon)" stroke-width="1.5" stroke-linecap="round"
        stroke-linejoin="round" />
    <path
        d="M10.0833 5.5V9.16667C10.0833 10.6856 12.1357 11.9167 14.6666 11.9167C17.1975 11.9167 19.2499 10.6856 19.2499 9.16667V5.5"
        stroke="white" stroke-opacity="0.2" stroke-width="1.5" stroke-linecap="round"
        stroke-linejoin="round" />
    <path
        d="M10.0833 9.16667V12.8333C10.0833 14.3523 12.1357 15.5833 14.6666 15.5833C17.1975 15.5833 19.2499 14.3523 19.2499 12.8333V9.16667"
        stroke="var(--income-icon)" stroke-width="1.5" stroke-linecap="round"
        stroke-linejoin="round" />
    <path
        d="M10.0833 9.16667V12.8333C10.0833 14.3523 12.1357 15.5833 14.6666 15.5833C17.1975 15.5833 19.2499 14.3523 19.2499 12.8333V9.16667"
        stroke="white" stroke-opacity="0.2" stroke-width="1.5" stroke-linecap="round"
        stroke-linejoin="round" />
    <path
        d="M10.0833 12.8333V16.5C10.0833 18.0189 12.1357 19.25 14.6666 19.25C17.1975 19.25 19.2499 18.0189 19.2499 16.5V12.8333"
        stroke="var(--income-icon)" stroke-width="1.5" stroke-linecap="round"
        stroke-linejoin="round" />
    <path
        d="M10.0833 12.8333V16.5C10.0833 18.0189 12.1357 19.25 14.6666 19.25C17.1975 19.25 19.2499 18.0189 19.2499 16.5V12.8333"
        stroke="white" stroke-opacity="0.2" stroke-width="1.5" stroke-linecap="round"
        stroke-linejoin="round" />
    <path
        d="M6.41667 8.25H4.125C3.36561 8.25 2.75 8.86561 2.75 9.625C2.75 10.3844 3.36561 11 4.125 11H5.04167C5.80106 11 6.41667 11.6156 6.41667 12.375C6.41667 13.1344 5.80106 13.75 5.04167 13.75H2.75"
        stroke="var(--income-icon)" stroke-width="1.5" stroke-linecap="round"
        stroke-linejoin="round" />
    <path
        d="M6.41667 8.25H4.125C3.36561 8.25 2.75 8.86561 2.75 9.625C2.75 10.3844 3.36561 11 4.125 11H5.04167C5.80106 11 6.41667 11.6156 6.41667 12.375C6.41667 13.1344 5.80106 13.75 5.04167 13.75H2.75"
        stroke="white" stroke-opacity="0.2" stroke-width="1.5" stroke-linecap="round"
        stroke-linejoin="round" />
    <path
        d="M5.33333 13.75C5.33333 13.3358 4.99755 13 4.58333 13C4.16912 13 3.83333 13.3358 3.83333 13.75H5.33333ZM3.83333 14.6667C3.83333 15.0809 4.16912 15.4167 4.58333 15.4167C4.99755 15.4167 5.33333 15.0809 5.33333 14.6667H3.83333ZM5.33333 7.33334C5.33333 6.91912 4.99755 6.58334 4.58333 6.58334C4.16912 6.58334 3.83333 6.91912 3.83333 7.33334H5.33333ZM3.83333 8.25C3.83333 8.66422 4.16912 9 4.58333 9C4.99755 9 5.33333 8.66422 5.33333 8.25H3.83333ZM3.83333 13.75V14.6667H5.33333V13.75H3.83333ZM3.83333 7.33334V8.25H5.33333V7.33334H3.83333Z"
        fill="var(--income-icon)" />
    <path
        d="M5.33333 13.75C5.33333 13.3358 4.99755 13 4.58333 13C4.16912 13 3.83333 13.3358 3.83333 13.75H5.33333ZM3.83333 14.6667C3.83333 15.0809 4.16912 15.4167 4.58333 15.4167C4.99755 15.4167 5.33333 15.0809 5.33333 14.6667H3.83333ZM5.33333 7.33334C5.33333 6.91912 4.99755 6.58334 4.58333 6.58334C4.16912 6.58334 3.83333 6.91912 3.83333 7.33334H5.33333ZM3.83333 8.25C3.83333 8.66422 4.16912 9 4.58333 9C4.99755 9 5.33333 8.66422 5.33333 8.25H3.83333ZM3.83333 13.75V14.6667H5.33333V13.75H3.83333ZM3.83333 7.33334V8.25H5.33333V7.33334H3.83333Z"
        fill="white" fill-opacity="0.2" />
</svg>