<svg width="30" height="30" viewBox="0 0 30 30" fill="none" xmlns="http://www.w3.org/2000/svg">
    <path d="M17.5 3.75V8.75C17.5 9.44036 18.0596 10 18.75 10H23.75"
        stroke="var(--payment-invoice-icon)"
        stroke-width="1.5" stroke-linecap="round" stroke-linejoin="round" />
    <path d="M17.5 3.75V8.75C17.5 9.44036 18.0596 10 18.75 10H23.75" stroke="white"
        stroke-opacity="0.1" stroke-width="1.5" stroke-linecap="round" stroke-linejoin="round" />
    <path fill-rule="evenodd" clip-rule="evenodd"
        d="M21.25 26.25H8.75C7.36929 26.25 6.25 25.1307 6.25 23.75V6.25C6.25 4.86929 7.36929 3.75 8.75 3.75H17.5L23.75 10V23.75C23.75 25.1307 22.6307 26.25 21.25 26.25Z"
        stroke="var(--payment-invoice-icon)" stroke-width="1.5" stroke-linecap="round"
        stroke-linejoin="round" />
    <path fill-rule="evenodd" clip-rule="evenodd"
        d="M21.25 26.25H8.75C7.36929 26.25 6.25 25.1307 6.25 23.75V6.25C6.25 4.86929 7.36929 3.75 8.75 3.75H17.5L23.75 10V23.75C23.75 25.1307 22.6307 26.25 21.25 26.25Z"
        stroke="white" stroke-opacity="0.1" stroke-width="1.5" stroke-linecap="round"
        stroke-linejoin="round" />
    <path
        d="M17.5 13.75H14.375C13.3395 13.75 12.5 14.5895 12.5 15.625C12.5 16.6605 13.3395 17.5 14.375 17.5H15.625C16.6605 17.5 17.5 18.3395 17.5 19.375C17.5 20.4105 16.6605 21.25 15.625 21.25H12.5"
        stroke="var(--payment-invoice-icon)" stroke-width="1.5" stroke-linecap="round"
        stroke-linejoin="round" />
    <path
        d="M17.5 13.75H14.375C13.3395 13.75 12.5 14.5895 12.5 15.625C12.5 16.6605 13.3395 17.5 14.375 17.5H15.625C16.6605 17.5 17.5 18.3395 17.5 19.375C17.5 20.4105 16.6605 21.25 15.625 21.25H12.5"
        stroke="white" stroke-opacity="0.1" stroke-width="1.5" stroke-linecap="round"
        stroke-linejoin="round" />
    <path
        d="M15.75 21.25C15.75 20.8358 15.4142 20.5 15 20.5C14.5858 20.5 14.25 20.8358 14.25 21.25H15.75ZM14.25 22.5C14.25 22.9142 14.5858 23.25 15 23.25C15.4142 23.25 15.75 22.9142 15.75 22.5H14.25ZM15.75 12.5C15.75 12.0858 15.4142 11.75 15 11.75C14.5858 11.75 14.25 12.0858 14.25 12.5H15.75ZM14.25 13.75C14.25 14.1642 14.5858 14.5 15 14.5C15.4142 14.5 15.75 14.1642 15.75 13.75H14.25ZM14.25 21.25V22.5H15.75V21.25H14.25ZM14.25 12.5V13.75H15.75V12.5H14.25Z"
        fill="var(--payment-invoice-icon)" />
    <path
        d="M15.75 21.25C15.75 20.8358 15.4142 20.5 15 20.5C14.5858 20.5 14.25 20.8358 14.25 21.25H15.75ZM14.25 22.5C14.25 22.9142 14.5858 23.25 15 23.25C15.4142 23.25 15.75 22.9142 15.75 22.5H14.25ZM15.75 12.5C15.75 12.0858 15.4142 11.75 15 11.75C14.5858 11.75 14.25 12.0858 14.25 12.5H15.75ZM14.25 13.75C14.25 14.1642 14.5858 14.5 15 14.5C15.4142 14.5 15.75 14.1642 15.75 13.75H14.25ZM14.25 21.25V22.5H15.75V21.25H14.25ZM14.25 12.5V13.75H15.75V12.5H14.25Z"
        fill="white" fill-opacity="0.1" />
</svg>