<svg width="72" height="43" viewBox="0 0 72 43" fill="none" xmlns="http://www.w3.org/2000/svg">
    <rect width="72" height="43" rx="6" fill="#4B465C" />
    <rect width="72" height="43" rx="6" fill="white" fill-opacity="0.95" />
    <path fill-rule="evenodd" clip-rule="evenodd"
        d="M44.0894 21.9852H46.4258C46.4644 21.9857 46.503 21.9879 46.5414 21.9918C46.5879 21.9968 46.6342 22.0034 46.6802 22.0116L46.6954 22.0143C46.7622 22.0293 46.8271 22.0514 46.8891 22.0804C47.0406 22.1487 47.1731 22.2531 47.275 22.3844C47.3689 22.504 47.4348 22.6431 47.468 22.7915C47.528 23.0586 47.4866 23.3384 47.3517 23.5767C47.2674 23.7222 47.1481 23.8444 47.0047 23.9322C46.9093 23.9913 46.8048 24.0342 46.6954 24.0591L46.6802 24.0624C46.66 24.0673 46.6394 24.0708 46.6187 24.073C46.5548 24.0821 46.4903 24.0874 46.4258 24.0889H44.0894V21.9852ZM47.1977 19.6033C47.2463 19.8282 47.2191 20.0629 47.1204 20.2708C47.0362 20.4407 46.9013 20.5802 46.7344 20.67C46.6385 20.7237 46.5341 20.7606 46.4258 20.779L46.4165 20.7803C46.394 20.7844 46.3713 20.7873 46.3484 20.7889C46.297 20.7939 46.2454 20.797 46.1938 20.7982H44.0894V18.8571H46.2328C46.2843 18.8591 46.3357 18.8635 46.3868 18.8703L46.4165 18.8736L46.4258 18.8756C46.5055 18.8894 46.5832 18.9132 46.6571 18.9463C46.7252 18.9773 46.7899 19.0154 46.8501 19.06C46.9235 19.116 46.9885 19.1824 47.0431 19.2569C47.118 19.3604 47.1707 19.4784 47.1977 19.6033ZM51.9847 9.53491H52.0006V29.4773C51.9998 29.9855 51.9027 30.489 51.7144 30.961C51.6034 31.2386 51.4611 31.5024 51.2901 31.7475C51.2649 31.7836 51.2391 31.8193 51.2127 31.8546L51.1738 31.9048C51.1363 31.9535 51.0977 32.0013 51.0581 32.0483L51.0198 32.0939L50.9808 32.1368C50.9556 32.1652 50.9301 32.1931 50.9041 32.2208L50.8651 32.2604L50.8268 32.3001L50.7878 32.3377L50.7495 32.3747C50.6869 32.4336 50.6226 32.4905 50.5565 32.5453L50.5175 32.577L50.4791 32.608L50.4408 32.6378L50.4018 32.6669L50.3635 32.6953L50.3245 32.7237L50.2861 32.7501L50.2472 32.7772L50.2088 32.803L50.1705 32.8281L50.1315 32.8526C50.1059 32.8688 50.0801 32.8846 50.0542 32.9002L50.0158 32.9233C50.0031 32.9306 49.9903 32.9379 49.9775 32.9451L49.9385 32.9669L49.9002 32.9881L49.8612 33.0079L49.8229 33.0284L49.7839 33.0482L49.7455 33.0667L49.7072 33.0852L49.6682 33.1031L49.6299 33.1209L49.5909 33.1374L49.5525 33.154L49.5142 33.1698L49.4752 33.1857L49.4369 33.2009L49.3979 33.2154L49.3595 33.2293L49.3206 33.2425C49.308 33.2471 49.2954 33.2524 49.2822 33.2564L49.2439 33.269L49.2049 33.2815L49.1666 33.2934L49.1276 33.3046L49.0892 33.3159L49.0509 33.3265L49.0119 33.337L48.9736 33.3463L48.9346 33.3562L48.8963 33.3655L48.8573 33.3734L48.8189 33.382L48.7806 33.3899L48.7416 33.3965L48.7033 33.4044L48.6643 33.4111L48.6259 33.417L48.5876 33.423L48.5486 33.4282L48.5103 33.4335L48.4713 33.4382L48.4329 33.4421L48.3946 33.4461L48.3556 33.45L48.3173 33.4534L48.2783 33.456L48.24 33.4586C48.2267 33.4586 48.2135 33.46 48.201 33.4606L48.1626 33.4619L48.1243 33.4633L48.0853 33.4646H48.047L48.008 33.4652H42.1344V25.3347H48.3946L48.4329 25.3334L48.4713 25.3327C48.4845 25.3327 48.4977 25.3314 48.5103 25.3307L48.5486 25.3294L48.5876 25.3268L48.6259 25.3241L48.6643 25.3215L48.7033 25.3175L48.7416 25.3142L48.7806 25.3096L48.8189 25.305L48.8573 25.2997L48.8963 25.2944L48.9346 25.2878L48.9736 25.2812L49.0119 25.2746L49.0509 25.2679L49.0892 25.2594L49.1276 25.2514C49.1406 25.2484 49.1536 25.2453 49.1666 25.2422L49.2049 25.2329C49.2568 25.2202 49.3084 25.2061 49.3595 25.1906L49.3979 25.1787C49.437 25.1665 49.4758 25.1532 49.5142 25.1391L49.5525 25.1239L49.5909 25.1093L49.6299 25.0935C49.8689 24.9923 50.0904 24.854 50.2861 24.6837C50.3864 24.5928 50.477 24.4919 50.5565 24.3823C50.6811 24.206 50.7727 24.0085 50.8268 23.7994C50.8648 23.65 50.8835 23.4962 50.8823 23.342C50.8822 23.1925 50.8636 23.0435 50.8268 22.8986C50.7634 22.6548 50.6444 22.429 50.4791 22.239C50.3772 22.1193 50.2604 22.0131 50.1315 21.9231C50.0106 21.8358 49.8813 21.7607 49.7455 21.699C49.7074 21.6813 49.6688 21.6646 49.6299 21.6488L49.5909 21.6329C49.5781 21.628 49.5653 21.6231 49.5525 21.6184L49.5142 21.6045C49.4631 21.5863 49.4115 21.5693 49.3595 21.5536L49.3206 21.5424C49.2442 21.5204 49.1671 21.5014 49.0892 21.4855L49.0509 21.4776L49.0119 21.4703L48.9736 21.4637C48.9606 21.4614 48.9476 21.4592 48.9346 21.4571L48.8963 21.4505C48.8833 21.4487 48.8703 21.4469 48.8573 21.4452L48.8189 21.4399L48.7806 21.4346L48.7416 21.4307L48.7033 21.4267L48.6643 21.4228L48.6259 21.4194L48.5902 21.4168V21.3705L48.6259 21.3653L48.6643 21.3586L48.7033 21.352L48.7416 21.3454L48.7806 21.3368L48.8189 21.3282C48.964 21.2956 49.1061 21.2512 49.2439 21.1954C49.408 21.1272 49.5633 21.0395 49.7065 20.9343C49.9358 20.763 50.1211 20.5397 50.2472 20.2827C50.3305 20.1073 50.3829 19.9188 50.4018 19.7255C50.415 19.5996 50.415 19.4727 50.4018 19.3468C50.3853 19.1843 50.3464 19.0248 50.2861 18.873C50.1999 18.6602 50.0682 18.4689 49.9002 18.3125C49.8286 18.2438 49.7512 18.1814 49.6689 18.1261C49.5592 18.0508 49.4426 17.9861 49.3206 17.9331C49.2201 17.8887 49.1171 17.8505 49.0119 17.8188L48.9736 17.8076C48.9479 17.8001 48.9221 17.7931 48.8963 17.7864L48.8573 17.7772C48.8318 17.7706 48.8062 17.7645 48.7806 17.7587L48.7416 17.7507L48.7033 17.7428L48.6643 17.7362L48.6259 17.7296L48.5876 17.723L48.5486 17.7164L48.5103 17.7111L48.4713 17.7064L48.4329 17.7018L48.3946 17.6978L48.3556 17.6939L48.3173 17.6906L48.2783 17.6873L48.24 17.6846L48.201 17.6826L48.1858 17.6813L48.1626 17.68L48.1243 17.678L48.0853 17.6754L48.047 17.6734L48.008 17.6721L47.9697 17.6701L47.9307 17.6688L47.8923 17.6674L47.854 17.6668H47.815L47.7938 17.6661H42.1338V13.5242C42.1341 12.9276 42.268 12.3386 42.5257 11.8005C42.5941 11.6573 42.6713 11.5184 42.757 11.3848C42.7823 11.3456 42.8083 11.3068 42.835 11.2685L42.8734 11.2136C42.8986 11.1784 42.9244 11.1436 42.9507 11.1092L42.989 11.059L43.028 11.0114C43.053 10.9801 43.0786 10.9493 43.1047 10.9189L43.1437 10.8759L43.182 10.8329C43.22 10.7917 43.2588 10.7511 43.2983 10.7113L43.3367 10.6737L43.375 10.636L43.414 10.6003L43.4523 10.5646L43.4913 10.5309C43.5416 10.4865 43.593 10.4433 43.6453 10.4014L43.6843 10.3716L43.7226 10.3419C43.7482 10.3226 43.774 10.3037 43.8 10.285L43.8383 10.258C43.8512 10.2491 43.8642 10.2402 43.8773 10.2315L43.9156 10.2051L43.9546 10.1793L43.9929 10.1548L44.0313 10.1311L44.0703 10.1073L44.1086 10.0841L44.1476 10.0617L44.1859 10.0398L44.2249 10.0187L44.2633 9.99821L44.3016 9.97839L44.3406 9.95856L44.3789 9.93873L44.4179 9.92089C44.4305 9.91428 44.4437 9.90899 44.4562 9.90304L44.4946 9.8852L44.5336 9.86801L44.5719 9.85149L44.6109 9.83563L44.6492 9.81977L44.6882 9.80456L44.7266 9.79002L44.7649 9.77548L44.8039 9.76227L44.8422 9.74839L44.8812 9.73517L44.9195 9.72327L44.9579 9.71071L44.9969 9.69948L45.0352 9.68824L45.0742 9.67767L45.1125 9.66709L45.1515 9.65718L45.1899 9.64793L45.2282 9.63868L45.2672 9.63008L45.3055 9.62149L45.3445 9.61356L45.3828 9.60629L45.4212 9.59902L45.4602 9.59241L45.4985 9.5858L45.5375 9.57985L45.5758 9.57457L45.6148 9.56928L45.6531 9.56465L45.6915 9.56003L45.7305 9.55606L45.7688 9.5521L45.8078 9.54879L45.8461 9.54615L45.8845 9.5435C45.8977 9.5435 45.9109 9.54218 45.9235 9.54152L45.9618 9.53954L46.0008 9.53822L46.0391 9.5369H46.0781L46.1165 9.53623H51.9847V9.53491Z"
        fill="#54B230" />
    <path fill-rule="evenodd" clip-rule="evenodd"
        d="M20.001 23.3738V13.5229C20.0013 12.927 20.135 12.3387 20.3922 11.8012C20.4811 11.6164 20.5841 11.4388 20.7002 11.2698L20.7386 11.2143L20.7775 11.1614L20.8159 11.1099L20.8542 11.0603L20.8932 11.0121C20.9183 10.9808 20.9438 10.95 20.9699 10.9195L21.0089 10.8766C21.0215 10.8621 21.0343 10.8478 21.0472 10.8336L21.0855 10.792C21.1109 10.7652 21.1367 10.7387 21.1629 10.7127L21.2012 10.6743L21.2395 10.6373L21.2785 10.601L21.3169 10.5659L21.3552 10.5316L21.3942 10.4985L21.4325 10.4655C21.4951 10.4127 21.5595 10.362 21.6255 10.3135L21.6638 10.2857C21.7143 10.2492 21.7656 10.2139 21.8178 10.18L21.8562 10.1555L21.8952 10.1317L21.9335 10.1079L21.9718 10.0848L22.0108 10.0623L22.0491 10.0412L22.0875 10.0194L22.1265 9.99953L22.1648 9.97839L22.2031 9.95856L22.2421 9.94005C22.2547 9.93344 22.2672 9.92683 22.2805 9.92155L22.3188 9.90304L22.3571 9.8852L22.3961 9.86867L22.4345 9.85215L22.4728 9.83563L22.5118 9.82043L22.5501 9.80523L22.5885 9.79069L22.6274 9.77548L22.6658 9.76227L22.7041 9.74905L22.7431 9.73583L22.7814 9.72327L22.8198 9.71138L22.8588 9.69948L22.8971 9.68824L22.9354 9.67767L22.9744 9.66709L23.0128 9.65718L23.0511 9.64793L23.0894 9.63868C23.1023 9.63525 23.1153 9.63239 23.1284 9.63008L23.1667 9.62149L23.2051 9.61356L23.2441 9.60629L23.2824 9.59836L23.3207 9.59175L23.3597 9.58514C23.373 9.58382 23.3849 9.58118 23.3981 9.57919L23.4364 9.57391L23.4754 9.56862L23.5137 9.56399L23.5521 9.55937L23.5911 9.5554L23.6294 9.55143L23.6677 9.54813L23.7061 9.54549L23.745 9.54284L23.7834 9.5402L23.8217 9.53888L23.8607 9.5369L23.899 9.53557H23.9374L23.9764 9.53491H29.8671V29.476C29.8666 29.9261 29.7904 30.3729 29.6417 30.7978C29.4922 31.224 29.2704 31.6213 28.9861 31.9722L28.9478 32.0198C28.9224 32.0502 28.8966 32.0801 28.8704 32.1097L28.8321 32.1527L28.7938 32.1943L28.7548 32.2353C28.7048 32.2873 28.6534 32.338 28.6008 32.3873L28.5624 32.423L28.5234 32.4574L28.4851 32.4911L28.4468 32.5241L28.4084 32.5565L28.3695 32.5869L28.3311 32.618L28.2928 32.647L28.2538 32.6768L28.2155 32.7045L28.1771 32.7323L28.1381 32.7587L28.0998 32.7852L28.0615 32.8109L28.0225 32.8361C28.0099 32.8447 27.9974 32.8519 27.9841 32.8599L27.9458 32.8843L27.9068 32.9068L27.8685 32.9299C27.8553 32.9365 27.8427 32.9445 27.8302 32.9517C27.8046 32.9661 27.7788 32.9802 27.7528 32.994L27.7145 33.0138L27.6762 33.0337L27.6372 33.0535L27.5988 33.072L27.5605 33.0899L27.5215 33.1084L27.4832 33.1249L27.4448 33.1421L27.4058 33.1586L27.3675 33.1738L27.3292 33.1896L27.2902 33.2042L27.2519 33.2187L27.2135 33.2319L27.1752 33.2458L27.1362 33.259L27.0979 33.2723C27.0846 33.2756 27.0721 33.2802 27.0595 33.2842L27.0205 33.2954L26.9822 33.3073L26.9439 33.3179L26.9049 33.3284L26.8665 33.339L26.8282 33.3483L26.7892 33.3575L26.7509 33.3668L26.7125 33.3747L26.6736 33.3833L26.6352 33.3906L26.5969 33.3978L26.5586 33.4044L26.5196 33.4111L26.4812 33.4177L26.4429 33.423L26.4039 33.4282L26.3656 33.4335L26.3272 33.4382L26.2882 33.4421L26.2499 33.4461L26.2116 33.4494L26.1726 33.4527L26.1342 33.4553L26.0959 33.458L26.0569 33.46L26.0186 33.4613L25.9803 33.4626L25.9419 33.4633H25.9029L25.8672 33.4646H20.001V25.0598L20.0836 25.0816L20.1219 25.0908L20.1609 25.1001L20.1992 25.1093L20.2376 25.1186L20.2766 25.1278L20.3149 25.1364L20.3532 25.145L20.3922 25.1536L20.4306 25.1622L20.4689 25.1701L20.5079 25.1787L20.5462 25.1867L20.5846 25.1946L20.6229 25.2025L20.6619 25.2104L20.7002 25.2177L20.7386 25.2256L20.7775 25.2329L20.8159 25.2402L20.8542 25.2475L20.8932 25.2547L20.9315 25.262L20.9699 25.2686L21.0089 25.2759L21.0472 25.2825L21.0855 25.2891L21.1245 25.2957L21.1629 25.3023L21.2012 25.3089L21.2395 25.3155L21.2785 25.3221L21.3169 25.3287L21.3552 25.334L21.3942 25.3406L21.4325 25.3466L21.4708 25.3525L21.5098 25.3578L21.5482 25.3638L21.5865 25.3691L21.6255 25.375L21.6638 25.3803L21.7022 25.3856L21.7412 25.3909L21.7795 25.3962L21.8178 25.4015L21.8562 25.4061L21.8952 25.4114L21.9335 25.416L21.9718 25.4213L22.0108 25.4259L22.0491 25.4305L22.0875 25.4352L22.1265 25.4391L22.1648 25.4437L22.2031 25.4484L22.2421 25.4523L22.2805 25.4563L22.3188 25.4603L22.3571 25.4642L22.3961 25.4682L22.4345 25.4722L22.4728 25.4761L22.5118 25.4794L22.5501 25.4827L22.5885 25.4867L22.6274 25.49L22.6658 25.4933L22.7041 25.4966L22.7431 25.4993L22.7814 25.5026L22.8198 25.5052L22.8588 25.5085L22.8971 25.5112L22.9354 25.5138L22.9744 25.5164L23.0128 25.5191L23.0511 25.5217L23.0894 25.5237L23.1284 25.5264L23.1667 25.5283L23.2051 25.5303L23.2441 25.5323L23.2824 25.5343L23.3207 25.5363L23.3597 25.5383L23.3981 25.5402L23.4364 25.5416L23.4754 25.5429L23.5137 25.5442L23.5521 25.5455L23.5911 25.5469L23.6294 25.5482L23.6677 25.5495L23.7061 25.5502L23.745 25.5515H23.7834L23.8217 25.5528H23.8607L23.899 25.5541H23.9764L24.0147 25.5548H24.2844L24.3227 25.5535H24.3617L24.4 25.5521L24.4383 25.5515L24.4773 25.5502L24.5157 25.5495L24.554 25.5482L24.593 25.5469L24.6313 25.5455L24.6697 25.5442L24.7087 25.5422L24.747 25.5402L24.7853 25.5389L24.8243 25.5369L24.8627 25.5343L24.901 25.5323L24.9393 25.5303L24.9783 25.5277L25.0166 25.5244L25.055 25.5217L25.094 25.5191L25.1323 25.5158L25.1706 25.5125L25.2096 25.5092L25.248 25.5059L25.2863 25.5026L25.3253 25.4986L25.3636 25.4946L25.402 25.4907L25.4403 25.4867L25.4793 25.4821L25.5176 25.4775L25.5559 25.4728L25.5949 25.4682L25.6333 25.4629L25.6716 25.4576L25.7106 25.4523L25.7489 25.4464L25.7873 25.4411L25.8263 25.4345L25.8646 25.4292L25.9029 25.4226L25.9419 25.416L25.9803 25.4094L26.0186 25.4028L26.0569 25.3955L26.0959 25.3882L26.1342 25.3803C26.1475 25.3783 26.16 25.375 26.1726 25.3724L26.2116 25.3651L26.2499 25.3565L26.2882 25.3479L26.3272 25.3393L26.3656 25.3307L26.4039 25.3215L26.4429 25.3122L26.4812 25.3023L26.5196 25.2924L26.5586 25.2818L26.5969 25.2719L26.6352 25.2607L26.6736 25.2501L26.7125 25.2389L26.7509 25.227L26.7892 25.2151L26.8282 25.2025L26.8665 25.19L26.9049 25.1767L26.9439 25.1635L26.9822 25.1503L27.0205 25.1358L27.0595 25.1219L27.0979 25.1067L27.1362 25.0915L27.1752 25.0763L27.2135 25.0598L27.2519 25.0439L27.2902 25.0267L27.3292 25.0089L27.3675 24.991C27.3807 24.9851 27.3939 24.9791 27.4058 24.9725L27.4448 24.954L27.4832 24.9342L27.5215 24.9144L27.5605 24.8945C27.5994 24.8732 27.638 24.8512 27.6762 24.8284L27.7145 24.8053L27.7528 24.7815L27.7918 24.7571L27.8302 24.7313L27.8685 24.7055C27.8817 24.6963 27.8949 24.6877 27.9068 24.6784L27.9458 24.6507L27.9841 24.6216C28.0235 24.5917 28.0621 24.5609 28.0998 24.529L28.1381 24.496L28.1771 24.461L28.2155 24.4253C28.2418 24.4003 28.2676 24.3747 28.2928 24.3486L28.3311 24.309L28.3695 24.266C28.5243 24.0922 28.654 23.8976 28.7548 23.6877C28.8173 23.5592 28.8691 23.4256 28.9094 23.2885C28.941 23.1823 28.9666 23.0744 28.9861 22.9653C29.0257 22.7435 29.0452 22.5185 29.0442 22.2932V17.6655H25.6333L25.6042 22.2932C25.6037 22.4523 25.5875 22.6111 25.5559 22.7671C25.5291 22.8933 25.4903 23.0168 25.4403 23.1358C25.3799 23.2761 25.3022 23.4082 25.209 23.5291C25.1099 23.6565 24.9933 23.7694 24.8627 23.8642C24.7209 23.968 24.5652 24.0513 24.4 24.1113C24.3366 24.1349 24.2722 24.1556 24.207 24.1735L24.1687 24.184C24.0924 24.2038 24.0152 24.2197 23.9374 24.2316L23.899 24.2382C23.8733 24.2419 23.8475 24.2452 23.8217 24.2482L23.7834 24.2521L23.745 24.2561L23.7061 24.2594C23.6805 24.2613 23.655 24.2628 23.6294 24.264L23.5911 24.266L23.5521 24.2673H23.5137L23.4754 24.2686H23.3981L23.3597 24.2673H23.3207L23.2824 24.266L23.2441 24.2647L23.2051 24.2627L23.1667 24.2614L23.1284 24.2594L23.0894 24.2567L23.0511 24.2541L23.0128 24.2515L22.9744 24.2488L22.9354 24.2455L22.8971 24.2422L22.8588 24.2382L22.8198 24.2343L22.7814 24.2303L22.7431 24.2257L22.7041 24.2211L22.6658 24.2164L22.6274 24.2111L22.5885 24.2059L22.5501 24.2006L22.5118 24.1946L22.4728 24.188L22.4345 24.1821L22.3961 24.1755L22.3571 24.1688L22.3188 24.1622L22.2805 24.1556L22.2421 24.1477L22.2031 24.1404L22.1648 24.1325L22.1265 24.1246L22.0875 24.116L22.0491 24.108L22.0108 24.0995L21.9718 24.0902L21.9335 24.0809L21.8952 24.0717L21.8562 24.0624L21.8178 24.0525L21.7795 24.0426L21.7412 24.0327L21.7022 24.0221L21.6638 24.0115L21.6255 24.001L21.5865 23.9897L21.5482 23.9785L21.5098 23.9673L21.4708 23.956L21.4325 23.9441L21.3942 23.9322L21.3552 23.9197L21.3169 23.9078L21.2785 23.8946L21.2395 23.882L21.2012 23.8688L21.1629 23.8556L21.1245 23.8424L21.0855 23.8291L21.0472 23.8159L21.0089 23.8014L20.9699 23.7875L20.9315 23.773L20.8932 23.7584L20.8542 23.7439L20.8159 23.7293L20.7775 23.7141L20.7386 23.6989L20.7002 23.6837L20.6619 23.6679L20.6229 23.652L20.5846 23.6362L20.5462 23.6203L20.5079 23.6038L20.4689 23.5872L20.4306 23.5707L20.3922 23.5535L20.3532 23.537L20.3149 23.5198L20.2766 23.5026L20.2376 23.4848L20.1992 23.467L20.1609 23.4491L20.1219 23.4313L20.0836 23.4134L20.001 23.3738Z"
        fill="#006CB9" />
    <path fill-rule="evenodd" clip-rule="evenodd"
        d="M31.1445 18.6767C31.1168 18.6992 31.0895 18.7222 31.0625 18.7455V13.5243C31.0626 12.9282 31.196 12.3397 31.4531 11.8019C31.5422 11.6171 31.6454 11.4395 31.7617 11.2705L31.8001 11.215L31.8391 11.1622C31.8517 11.1451 31.8645 11.1281 31.8774 11.1113L31.9157 11.061L31.9547 11.0134C31.9798 10.9822 32.0054 10.9514 32.0314 10.9209L32.0697 10.8773L32.1087 10.8343C32.1586 10.78 32.2099 10.7271 32.2627 10.6757L32.3011 10.638L32.34 10.6024L32.3784 10.5667L32.4167 10.5323L32.4557 10.4993L32.494 10.4662C32.5692 10.4041 32.6464 10.3444 32.7254 10.2871C32.7635 10.2596 32.8021 10.2328 32.841 10.2065L32.8793 10.1814L32.9177 10.1562L32.9567 10.1324L32.995 10.1087L33.0333 10.0862L33.0723 10.0631L33.1107 10.0419L33.149 10.0201L33.188 10.0003L33.2263 9.97978L33.2647 9.95995L33.3037 9.94078L33.342 9.92228L33.3803 9.90443L33.4187 9.88659L33.4576 9.86941L33.496 9.85288L33.5343 9.83702L33.5733 9.82116L33.6116 9.80596L33.65 9.79142L33.689 9.77688L33.7273 9.76366L33.7656 9.74978L33.8046 9.73656L33.843 9.724L33.8813 9.71211L33.9203 9.70087L33.9586 9.68898L33.997 9.6784L34.0359 9.66783L34.0743 9.65791L34.1126 9.64866L34.1509 9.63941L34.1899 9.63082L34.2283 9.62222L34.2666 9.61429L34.3056 9.60702L34.3439 9.59975L34.3823 9.59314L34.4213 9.58653L34.4596 9.57993L34.4979 9.57464L34.5369 9.56935L34.5753 9.56472L34.6136 9.5601L34.6526 9.55613L34.6909 9.55217L34.7292 9.54886L34.7682 9.54622L34.8066 9.54358L34.8449 9.54093L34.8832 9.53961L34.9222 9.53763L34.9606 9.53631H34.9989L35.0379 9.53564H40.9293V29.4767C40.9286 29.9269 40.8522 30.3737 40.7032 30.7985C40.6125 31.0545 40.4963 31.3007 40.3563 31.5335C40.3315 31.5745 40.3059 31.615 40.2796 31.6551C40.2664 31.6749 40.2538 31.6947 40.2406 31.7132C40.1799 31.8023 40.1157 31.8889 40.0483 31.973L40.0093 32.0206L39.9709 32.0662L39.9326 32.1098L39.8936 32.1534L39.8553 32.195L39.817 32.236L39.7786 32.2757C39.7408 32.3139 39.7023 32.3514 39.663 32.388L39.624 32.4237L39.5856 32.4581L39.5473 32.4918L39.5083 32.5248L39.47 32.5566L39.4316 32.5876L39.3926 32.6187L39.3543 32.6478L39.316 32.6769L39.277 32.7053L39.2387 32.733L39.2003 32.7595L39.1613 32.7859L39.123 32.8117L39.0847 32.8368L39.0463 32.8606L39.0073 32.885L38.969 32.9075L38.9307 32.9306C38.9177 32.938 38.9047 32.9453 38.8917 32.9525L38.8533 32.9736L38.815 32.9948L38.776 33.0146L38.7377 33.0344L38.6993 33.0542L38.6604 33.0727C38.6478 33.0793 38.6346 33.0846 38.622 33.0906L38.5837 33.1084C38.5705 33.115 38.5573 33.1203 38.5447 33.1256L38.5064 33.1428L38.468 33.1587L38.429 33.1745L38.3907 33.1904L38.3524 33.2049L38.314 33.2195L38.275 33.2327L38.2367 33.2466L38.1984 33.2598L38.1594 33.273C38.1462 33.2763 38.1336 33.2809 38.121 33.2849L38.0827 33.2961L38.0437 33.308L38.0054 33.3186L37.9671 33.3292L37.9281 33.3397L37.8897 33.349L37.8514 33.3583L37.8124 33.3675L37.7741 33.3754L37.7357 33.384L37.6967 33.3913L37.6584 33.3986L37.6201 33.4052L37.5817 33.4118L37.5428 33.4184L37.5044 33.4237L37.4661 33.429L37.4271 33.4343L37.3888 33.4389L37.3504 33.4429L37.3114 33.4468L37.2731 33.4501L37.2348 33.4534L37.1958 33.4561L37.1574 33.4587L37.1191 33.4607L37.0801 33.462L37.0418 33.4633L37.0034 33.464L36.9645 33.4647H31.0625V24.2575C31.1146 24.3019 31.1679 24.3449 31.2224 24.3864L31.2608 24.4154L31.2991 24.4439C31.3247 24.4625 31.3504 24.4807 31.3764 24.4987L31.4148 24.5252L31.4531 24.5503L31.4921 24.5754L31.5304 24.5998L31.5688 24.6236L31.6078 24.6474L31.6461 24.6699L31.6844 24.6924L31.7234 24.7142L31.7617 24.7353L31.8001 24.7565L31.8391 24.7763L31.8774 24.7961L31.9157 24.816L31.9547 24.8351L31.9931 24.8536L32.0314 24.8721L32.0697 24.89L32.1087 24.9072L32.1471 24.9243L32.1854 24.9409L32.2244 24.9574L32.2627 24.9733L32.3011 24.9891L32.34 25.0043L32.3784 25.0195L32.4167 25.0347L32.4557 25.0493L32.494 25.0625L32.5324 25.077L32.5714 25.0902L32.6097 25.1035L32.648 25.1167L32.6864 25.1299L32.7254 25.1418L32.7637 25.1543L32.802 25.1662L32.841 25.1775L32.8793 25.1887L32.9177 25.1999L32.9567 25.2112L32.995 25.2218L33.0333 25.2323L33.0723 25.2429L33.1107 25.2528L33.149 25.2627L33.188 25.272L33.2263 25.2812L33.2647 25.2905L33.3037 25.2997L33.342 25.3083L33.3803 25.3169L33.4187 25.3255L33.4576 25.3334L33.496 25.3414L33.5343 25.3493L33.5733 25.3572L33.6116 25.3645L33.65 25.3718L33.689 25.3784L33.7273 25.3857L33.7656 25.3923L33.8046 25.3989L33.843 25.4055L33.8813 25.4121L33.9203 25.418L33.9586 25.424L33.997 25.4299L34.0359 25.4352L34.0743 25.4405L34.1126 25.4465L34.1509 25.4511L34.1899 25.4564L34.2283 25.461L34.2666 25.4663L34.3056 25.4709L34.3439 25.4749L34.3823 25.4795L34.4213 25.4835L34.4596 25.4874L34.4979 25.4914L34.5369 25.4954L34.5753 25.4993L34.6136 25.5026L34.6526 25.5059L34.6909 25.5093L34.7292 25.5126L34.7682 25.5159L34.8066 25.5185L34.8449 25.5211L34.8832 25.5238L34.9222 25.5264L34.9606 25.5291L34.9989 25.5311L35.0379 25.5337L35.0762 25.5357L35.1146 25.5377L35.1536 25.5397L35.1919 25.5416L35.2302 25.543L35.2692 25.5449L35.3075 25.5463L35.3459 25.5476L35.3849 25.5489L35.4232 25.5502L35.4615 25.5509L35.5005 25.5516L35.5389 25.5529L35.5772 25.5535H35.6155L35.6545 25.5549H35.6929L35.7312 25.5555H35.8468L35.8858 25.5562H36.0015L36.0398 25.5555L36.0782 25.5549H36.1172L36.1555 25.5535H36.1938L36.2328 25.5522L36.2712 25.5516L36.3095 25.5502L36.3478 25.5496L36.3868 25.5482L36.4251 25.5469L36.4635 25.5456L36.5025 25.5443L36.5408 25.543L36.5791 25.5416L36.6181 25.5397L36.6565 25.5383L36.675 25.5377L36.6948 25.5363L36.7338 25.535L36.7721 25.533L36.8105 25.5304L36.8495 25.5284L36.8878 25.5258L36.9261 25.5231L36.9645 25.5205L37.0034 25.5178L37.0418 25.5152L37.0801 25.5119L37.1191 25.5086L37.1574 25.5053L37.1958 25.502L37.2348 25.4987L37.2731 25.4954L37.3114 25.4914L37.3504 25.4874L37.3888 25.4835L37.4271 25.4795L37.4661 25.4755L37.5044 25.4709L37.5428 25.467L37.5817 25.4623L37.6201 25.4577L37.6584 25.4531L37.6967 25.4484L37.7357 25.4438L37.7741 25.4385L37.8124 25.4339L37.8514 25.4286L37.8897 25.4233L37.9281 25.418L37.9671 25.4128L38.0054 25.4075L38.0437 25.4022L38.0827 25.3962L38.121 25.3909L38.1594 25.3843L38.1984 25.3791L38.2367 25.3731L38.275 25.3665L38.314 25.3612L38.3524 25.3546L38.3907 25.348L38.429 25.342L38.468 25.3354L38.5064 25.3288L38.5447 25.3222L38.5837 25.3156L38.622 25.309L38.6604 25.3024L38.6993 25.2958L38.7377 25.2892L38.776 25.2812L38.815 25.2746L38.8533 25.2674L38.8917 25.2601L38.9307 25.2528L38.969 25.2449L39.0073 25.2383L39.0463 25.2303L39.0847 25.2224L39.123 25.2145L39.1613 25.2072L39.2003 25.1993L39.2387 25.1914L39.277 25.1834L39.316 25.1748L39.3543 25.1669L39.3926 25.1583L39.4316 25.1504L39.47 25.1418L39.5083 25.1332L39.5473 25.1246L39.5856 25.116L39.624 25.1074L39.663 25.0982L39.7013 25.0896L39.7396 25.0803L39.7786 25.0711L39.817 25.0612V23.3745L39.7786 23.3937L39.7396 23.4122L39.7013 23.4313L39.663 23.4498L39.624 23.4684L39.5856 23.4869L39.5473 23.5047L39.5083 23.5225L39.47 23.5404L39.4316 23.5576L39.3926 23.5754L39.3543 23.5926L39.316 23.6091L39.277 23.6256L39.2387 23.6422L39.2003 23.6587L39.1613 23.6752L39.123 23.6911L39.0847 23.7069L39.0463 23.7221L39.0073 23.7373L38.969 23.7525L38.9307 23.7671L38.8917 23.7823L38.8533 23.7968L38.815 23.8107L38.776 23.8246L38.7377 23.8385L38.6993 23.8517L38.6604 23.8649L38.622 23.8781L38.5837 23.8913L38.5447 23.9046L38.5064 23.9164L38.468 23.929L38.429 23.9409L38.3907 23.9528L38.3524 23.9647L38.314 23.9759L38.275 23.9872L38.2367 23.9984L38.1984 24.009L38.1594 24.0196L38.121 24.0295L38.0827 24.0394L38.0437 24.0493L38.0054 24.0592L37.9671 24.0685L37.9281 24.0777L37.8897 24.087L37.8514 24.0956L37.8124 24.1041L37.7741 24.1127L37.7357 24.1207L37.6967 24.1286L37.6584 24.1365L37.6201 24.1438L37.5817 24.1504L37.5428 24.1583L37.5044 24.165L37.4661 24.1716L37.4271 24.1782L37.3888 24.1848L37.3504 24.1901L37.3114 24.1967L37.2731 24.2013L37.2348 24.2073L37.1958 24.2125L37.1574 24.2172L37.1191 24.2218L37.0801 24.2264L37.0418 24.231L37.0034 24.235L36.9645 24.239L36.9261 24.2429L36.8878 24.2462L36.8495 24.2496L36.8105 24.2529L36.7873 24.2548L36.7721 24.2555L36.7338 24.2581L36.6948 24.2608L36.6565 24.2628L36.6181 24.2648L36.5791 24.2667L36.5408 24.2681L36.5025 24.2694H36.4635L36.4251 24.2707H36.2712L36.2328 24.2694L36.1938 24.2681L36.1555 24.2667L36.1172 24.2654L36.0782 24.2628L36.0398 24.2608L36.0015 24.2581L35.9625 24.2548L35.9242 24.2522L35.8858 24.2482L35.8468 24.2443L35.8085 24.2396L35.7702 24.235L35.7312 24.2297L35.6929 24.2244L35.6545 24.2191L35.6155 24.2125L35.5772 24.2059L35.5389 24.1993L35.5005 24.1921L35.4615 24.1835L35.4232 24.1755L35.3849 24.1669L35.3459 24.1577L35.3075 24.1478L35.2692 24.1379L35.2302 24.1273C35.2174 24.1238 35.2046 24.1203 35.1919 24.1167L35.1536 24.1048C35.1277 24.097 35.1019 24.0888 35.0762 24.0804L35.0379 24.0671L34.9989 24.0533L34.9606 24.0394L34.9222 24.0242L34.8832 24.009L34.8449 23.9925L34.8066 23.9759L34.7682 23.9581L34.7292 23.9396C34.7035 23.9272 34.6779 23.9144 34.6526 23.9012L34.6136 23.8808C34.6004 23.8742 34.5878 23.8662 34.5753 23.859C34.5362 23.8367 34.4976 23.8136 34.4596 23.7896C34.4465 23.7819 34.4337 23.7738 34.4213 23.7651L34.3823 23.7387C34.3563 23.7207 34.3308 23.7022 34.3056 23.6831L34.2666 23.6534C34.2537 23.6434 34.241 23.6333 34.2283 23.623L34.1899 23.5913C34.1502 23.5574 34.1116 23.5221 34.0743 23.4855C34.0611 23.4723 34.0478 23.4604 34.0359 23.4472C33.9666 23.3767 33.9022 23.3016 33.843 23.2225C33.7536 23.1046 33.6761 22.9782 33.6116 22.8451C33.5493 22.7184 33.4978 22.5866 33.4576 22.4512C33.4256 22.3453 33.3998 22.2376 33.3803 22.1287C33.3094 21.7133 33.3094 21.289 33.3803 20.8736C33.4078 20.7242 33.4464 20.5771 33.496 20.4334C33.5387 20.3127 33.5902 20.1951 33.65 20.0818C33.7264 19.94 33.817 19.8063 33.9203 19.6826C33.9911 19.5975 34.0684 19.5179 34.1516 19.4447C34.1642 19.4335 34.1767 19.4216 34.1899 19.411L34.2283 19.3786C34.2781 19.3382 34.3295 19.2996 34.3823 19.263L34.4213 19.2365L34.4596 19.2121C34.4851 19.1957 34.5108 19.1799 34.5369 19.1645L34.5753 19.1427L34.6136 19.1209L34.6526 19.101C34.6779 19.0874 34.7035 19.0742 34.7292 19.0614L34.7682 19.0435L34.8066 19.0257L34.8449 19.0092L34.8832 18.9926L34.9222 18.9774L34.9606 18.9622L34.9989 18.9484L35.0379 18.9345L35.0762 18.9213C35.1146 18.9085 35.1531 18.8963 35.1919 18.8849L35.2302 18.8743L35.2692 18.8638C35.2818 18.8598 35.2943 18.8572 35.3075 18.8539L35.3459 18.8439L35.3849 18.8347L35.4232 18.8261L35.4615 18.8182L35.5005 18.8096L35.5389 18.803L35.5772 18.7957L35.6155 18.7891L35.6545 18.7825L35.6929 18.7772L35.7312 18.7712L35.7702 18.7666L35.8085 18.762L35.8468 18.7574L35.8858 18.7534L35.9242 18.7494L35.9625 18.7468L36.0015 18.7435L36.0398 18.7408L36.0782 18.7382L36.1172 18.7362L36.1555 18.7349C36.1687 18.7349 36.1813 18.7336 36.1938 18.7329L36.2328 18.7322L36.2712 18.7316L36.3095 18.7309H36.4251L36.4635 18.7316L36.5025 18.7322L36.5408 18.7336L36.5791 18.7349L36.6181 18.7369L36.6565 18.7389L36.6948 18.7408L36.7338 18.7435L36.7721 18.7461L36.7873 18.7468L36.8105 18.7488L36.8495 18.7521L36.8878 18.7554L36.9261 18.7587L36.9645 18.762L37.0034 18.766L37.0418 18.7706L37.0801 18.7745L37.1191 18.7792L37.1574 18.7838L37.1958 18.7884L37.2348 18.7937L37.2731 18.799L37.3114 18.8049L37.3504 18.8102L37.3888 18.8168L37.4271 18.8228L37.4661 18.8294L37.5044 18.836L37.5428 18.8426L37.5817 18.8492L37.6201 18.8558L37.6584 18.8638L37.6967 18.8717L37.7357 18.8796L37.7741 18.8876L37.8124 18.8955L37.8514 18.9041L37.8897 18.9127L37.9281 18.9219L37.9671 18.9312L38.0054 18.9404L38.0437 18.9497L38.0827 18.9596L38.121 18.9695L38.1594 18.9801L38.1984 18.9907L38.2367 19.0012L38.275 19.0125L38.314 19.0231L38.3524 19.0349L38.3907 19.0462L38.429 19.0581L38.468 19.07L38.5064 19.0825L38.5447 19.0951L38.5837 19.1083L38.622 19.1209L38.6604 19.1341L38.6993 19.1473L38.7377 19.1605L38.776 19.1744L38.815 19.1889L38.8533 19.2028L38.8917 19.2174L38.9307 19.2326L38.969 19.2471L39.0073 19.2623L39.0463 19.2775L39.0847 19.2934L39.123 19.3092L39.1613 19.3251L39.2003 19.3416L39.2387 19.3581L39.277 19.3747L39.316 19.3912L39.3543 19.4084L39.3926 19.4255L39.4316 19.4434L39.47 19.4612L39.5083 19.4791L39.5473 19.4969L39.5856 19.5154L39.624 19.5333L39.663 19.5524L39.7013 19.5709L39.7396 19.5901L39.7786 19.6093L39.817 19.6284V17.9398L39.7786 17.9306L39.7396 17.9213L39.7013 17.9121L39.663 17.9035L39.624 17.8942L39.5856 17.8856L39.5473 17.877L39.5083 17.8684L39.47 17.8598L39.4316 17.8513L39.3926 17.8427L39.3543 17.8347L39.316 17.8268L39.277 17.8182L39.2387 17.8103L39.2003 17.8023L39.1613 17.7944L39.123 17.7871L39.0847 17.7792L39.0463 17.7713L39.0073 17.764L38.969 17.7567L38.9307 17.7488L38.8917 17.7422L38.8533 17.7343L38.815 17.7277L38.776 17.7204L38.7377 17.7131L38.6993 17.7065L38.6604 17.6999L38.622 17.6926L38.5837 17.686L38.5447 17.6794L38.5064 17.6728L38.468 17.6662L38.429 17.6596L38.3907 17.653L38.3524 17.647L38.314 17.6404L38.275 17.6345L38.2367 17.6285L38.1984 17.6226L38.1594 17.6166L38.121 17.6113L38.0827 17.6054L38.0437 17.6001L38.0054 17.5942L37.9671 17.5889L37.9281 17.5836L37.8897 17.5783L37.8514 17.573L37.8124 17.5684L37.7741 17.5631L37.7357 17.5585L37.6967 17.5532L37.6584 17.5486L37.6201 17.5439L37.5817 17.5393L37.5421 17.5347L37.5038 17.53L37.4654 17.5261L37.4264 17.5221L37.3881 17.5175L37.3498 17.5142L37.3108 17.5102L37.2724 17.5063L37.2341 17.503L37.1951 17.4996L37.1568 17.4957L37.1184 17.4924L37.0795 17.4897L37.0411 17.4864L37.0028 17.4838L36.9638 17.4811L36.9255 17.4785L36.8871 17.4759L36.8488 17.4732L36.8098 17.4712L36.7715 17.4692L36.7331 17.4673L36.6941 17.4653L36.6743 17.464H36.6565L36.6181 17.462L36.5791 17.46L36.5408 17.4587L36.5025 17.4573L36.4635 17.456L36.4251 17.4547L36.3868 17.4534L36.3478 17.4521L36.3095 17.4514L36.2712 17.4501H36.2328L36.1938 17.4488L36.1555 17.4481L36.1172 17.4474H36.0782L36.0398 17.4461H35.6929L35.6545 17.4468L35.6155 17.4474L35.5772 17.4481L35.5389 17.4488L35.5005 17.4501L35.4615 17.4507L35.4232 17.4521L35.3849 17.4534L35.3459 17.454L35.3075 17.4554L35.2692 17.4573L35.2302 17.4587L35.1919 17.4607L35.1536 17.462L35.1146 17.464L35.0762 17.4659L35.0379 17.4679L34.9989 17.4706L34.9606 17.4725L34.9222 17.4752L34.8832 17.4778L34.8449 17.4805L34.8066 17.4831L34.7682 17.4864L34.7292 17.4891L34.6909 17.4924L34.6526 17.4957L34.6136 17.499L34.5753 17.503L34.5369 17.5063L34.4979 17.5102L34.4596 17.5142L34.4213 17.5182L34.3823 17.5221L34.3439 17.5267L34.3056 17.5314L34.2666 17.536L34.2283 17.5406L34.1899 17.5452L34.1509 17.5505L34.1126 17.5558L34.0743 17.5611L34.0359 17.5664L33.997 17.5723L33.9586 17.5783L33.9203 17.5836L33.8813 17.5902L33.843 17.5968L33.8046 17.6027L33.7656 17.6094L33.7273 17.616L33.689 17.6226L33.65 17.6305L33.6116 17.6371L33.5733 17.645L33.5343 17.6523L33.496 17.6602L33.4576 17.6682L33.4187 17.6768L33.3803 17.6847L33.342 17.6933L33.3037 17.7025L33.2647 17.7111L33.2263 17.7204L33.188 17.7296L33.149 17.7396L33.1107 17.7495L33.0723 17.7594L33.0333 17.77L32.995 17.7799L32.9567 17.7911L32.9177 17.8017L32.8793 17.8129L32.841 17.8242L32.802 17.8361L32.7637 17.8479L32.7254 17.8605L32.6864 17.8724L32.648 17.8856L32.6097 17.8988L32.5714 17.9121L32.5324 17.9253L32.494 17.9392L32.4557 17.953L32.4167 17.9676L32.3784 17.9821L32.34 17.9973L32.3011 18.0132L32.2627 18.0284L32.2244 18.0449L32.1854 18.0614L32.1471 18.0779L32.1087 18.0951L32.0697 18.1123L32.0314 18.1302L31.9931 18.1487L31.9547 18.1672L31.9157 18.1863L31.8774 18.2062L31.8391 18.226L31.8001 18.2458L31.7617 18.267L31.7234 18.2881L31.6844 18.3099L31.6461 18.3324L31.6078 18.3555L31.5688 18.3787L31.5304 18.4025L31.4921 18.4269L31.4531 18.452L31.4148 18.4778L31.3764 18.5042C31.3505 18.522 31.3247 18.5401 31.2991 18.5584L31.2608 18.5868C31.2217 18.6161 31.1825 18.6461 31.1445 18.6767Z"
        fill="#E10238" />
</svg>