<svg width="16" height="17" viewBox="0 0 16 17" fill="none" xmlns="http://www.w3.org/2000/svg">
    <path
        d="M16 0.5V6.5H14V3.925L10.025 7.875C10.3417 8.34167 10.5833 8.83767 10.75 9.363C10.9167 9.88833 11 10.434 11 11C11 12.5333 10.4667 13.8333 9.4 14.9C8.33333 15.9667 7.03333 16.5 5.5 16.5C3.96667 16.5 2.66667 15.9667 1.6 14.9C0.533333 13.8333 0 12.5333 0 11C0 9.46667 0.533333 8.16667 1.6 7.1C2.66667 6.03333 3.96667 5.5 5.5 5.5C6.05 5.5 6.59167 5.579 7.125 5.737C7.65833 5.895 8.15 6.141 8.6 6.475L12.575 2.5H10V0.5H16ZM5.5 7.5C4.53333 7.5 3.70833 7.84167 3.025 8.525C2.34167 9.20833 2 10.0333 2 11C2 11.9667 2.34167 12.7917 3.025 13.475C3.70833 14.1583 4.53333 14.5 5.5 14.5C6.46667 14.5 7.29167 14.1583 7.975 13.475C8.65833 12.7917 9 11.9667 9 11C9 10.0333 8.65833 9.20833 7.975 8.525C7.29167 7.84167 6.46667 7.5 5.5 7.5Z"
        fill="#17766B" />
</svg>