<svg width="30" height="30" viewBox="0 0 30 30" fill="none" xmlns="http://www.w3.org/2000/svg">
    <path
        d="M6.25 26.25V6.25C6.25 4.86929 7.36929 3.75 8.75 3.75H21.25C22.6307 3.75 23.75 4.86929 23.75 6.25V26.25L20 23.75L17.5 26.25L15 23.75L12.5 26.25L10 23.75L6.25 26.25"
        stroke="var(--payment-receipt-icon)" stroke-width="1.5" stroke-linecap="round"
        stroke-linejoin="round" />
    <path
        d="M6.25 26.25V6.25C6.25 4.86929 7.36929 3.75 8.75 3.75H21.25C22.6307 3.75 23.75 4.86929 23.75 6.25V26.25L20 23.75L17.5 26.25L15 23.75L12.5 26.25L10 23.75L6.25 26.25"
        stroke="white" stroke-opacity="0.1" stroke-width="1.5" stroke-linecap="round"
        stroke-linejoin="round" />
    <path
        d="M17.5 10.75C17.9142 10.75 18.25 10.4142 18.25 10C18.25 9.58579 17.9142 9.25 17.5 9.25V10.75ZM15.625 13.75L15.625 13H15.625V13.75ZM15.625 17.5L15.625 18.25H15.625L15.625 17.5ZM12.5 16.75C12.0858 16.75 11.75 17.0858 11.75 17.5C11.75 17.9142 12.0858 18.25 12.5 18.25V16.75ZM15.75 17.5C15.75 17.0858 15.4142 16.75 15 16.75C14.5858 16.75 14.25 17.0858 14.25 17.5H15.75ZM14.25 19.375C14.25 19.7892 14.5858 20.125 15 20.125C15.4142 20.125 15.75 19.7892 15.75 19.375H14.25ZM15.75 8.125C15.75 7.71079 15.4142 7.375 15 7.375C14.5858 7.375 14.25 7.71079 14.25 8.125H15.75ZM14.25 10C14.25 10.4142 14.5858 10.75 15 10.75C15.4142 10.75 15.75 10.4142 15.75 10H14.25ZM17.5 9.25H14.375V10.75H17.5V9.25ZM14.375 9.25C12.9253 9.25 11.75 10.4253 11.75 11.875H13.25C13.25 11.2537 13.7537 10.75 14.375 10.75V9.25ZM11.75 11.875C11.75 13.3247 12.9253 14.5 14.375 14.5V13C13.7537 13 13.25 12.4963 13.25 11.875H11.75ZM14.375 14.5H15.625V13H14.375V14.5ZM15.625 14.5C16.2463 14.5 16.75 15.0037 16.75 15.625H18.25C18.25 14.1753 17.0747 13 15.625 13L15.625 14.5ZM16.75 15.625C16.75 16.2463 16.2463 16.75 15.625 16.75L15.625 18.25C17.0747 18.25 18.25 17.0747 18.25 15.625H16.75ZM15.625 16.75H12.5V18.25H15.625V16.75ZM14.25 17.5V19.375H15.75V17.5H14.25ZM14.25 8.125V10H15.75V8.125H14.25Z"
        fill="var(--payment-receipt-icon)" />
    <path
        d="M17.5 10.75C17.9142 10.75 18.25 10.4142 18.25 10C18.25 9.58579 17.9142 9.25 17.5 9.25V10.75ZM15.625 13.75L15.625 13H15.625V13.75ZM15.625 17.5L15.625 18.25H15.625L15.625 17.5ZM12.5 16.75C12.0858 16.75 11.75 17.0858 11.75 17.5C11.75 17.9142 12.0858 18.25 12.5 18.25V16.75ZM15.75 17.5C15.75 17.0858 15.4142 16.75 15 16.75C14.5858 16.75 14.25 17.0858 14.25 17.5H15.75ZM14.25 19.375C14.25 19.7892 14.5858 20.125 15 20.125C15.4142 20.125 15.75 19.7892 15.75 19.375H14.25ZM15.75 8.125C15.75 7.71079 15.4142 7.375 15 7.375C14.5858 7.375 14.25 7.71079 14.25 8.125H15.75ZM14.25 10C14.25 10.4142 14.5858 10.75 15 10.75C15.4142 10.75 15.75 10.4142 15.75 10H14.25ZM17.5 9.25H14.375V10.75H17.5V9.25ZM14.375 9.25C12.9253 9.25 11.75 10.4253 11.75 11.875H13.25C13.25 11.2537 13.7537 10.75 14.375 10.75V9.25ZM11.75 11.875C11.75 13.3247 12.9253 14.5 14.375 14.5V13C13.7537 13 13.25 12.4963 13.25 11.875H11.75ZM14.375 14.5H15.625V13H14.375V14.5ZM15.625 14.5C16.2463 14.5 16.75 15.0037 16.75 15.625H18.25C18.25 14.1753 17.0747 13 15.625 13L15.625 14.5ZM16.75 15.625C16.75 16.2463 16.2463 16.75 15.625 16.75L15.625 18.25C17.0747 18.25 18.25 17.0747 18.25 15.625H16.75ZM15.625 16.75H12.5V18.25H15.625V16.75ZM14.25 17.5V19.375H15.75V17.5H14.25ZM14.25 8.125V10H15.75V8.125H14.25Z"
        fill="white" fill-opacity="0.1" />
</svg>