<svg width="20" height="21" viewBox="0 0 20 21" fill="none" xmlns="http://www.w3.org/2000/svg">
    <path fill-rule="evenodd" clip-rule="evenodd"
        d="M8.60417 3.81149C8.95917 2.34816 11.0408 2.34816 11.3958 3.81149C11.5039 4.25737 11.8184 4.62484 12.2422 4.80044C12.6661 4.97605 13.1483 4.93866 13.54 4.69982C14.8258 3.91649 16.2983 5.38816 15.515 6.67482C15.2765 7.06637 15.2392 7.54822 15.4146 7.97181C15.59 8.39539 15.957 8.70982 16.4025 8.81816C17.8658 9.17316 17.8658 11.2548 16.4025 11.6098C15.9566 11.7179 15.5891 12.0324 15.4135 12.4562C15.2379 12.88 15.2753 13.3623 15.5142 13.754C16.2975 15.0398 14.8258 16.5123 13.5392 15.729C13.1476 15.4905 12.6658 15.4532 12.2422 15.6286C11.8186 15.804 11.5042 16.171 11.3958 16.6165C11.0408 18.0798 8.95917 18.0798 8.60417 16.6165C8.49613 16.1706 8.18164 15.8031 7.75779 15.6275C7.33394 15.4519 6.85172 15.4893 6.46 15.7282C5.17417 16.5115 3.70167 15.0398 4.485 13.7532C4.72349 13.3616 4.76079 12.8798 4.58539 12.4562C4.41 12.0326 4.04298 11.7182 3.5975 11.6098C2.13417 11.2548 2.13417 9.17316 3.5975 8.81816C4.04338 8.71012 4.41085 8.39563 4.58645 7.97178C4.76206 7.54793 4.72467 7.0657 4.48583 6.67399C3.7025 5.38816 5.17417 3.91566 6.46083 4.69899C7.29417 5.20566 8.37417 4.75732 8.60417 3.81149Z"
        stroke="#4B465C" stroke-width="2" stroke-linecap="round" stroke-linejoin="round" />
    <path fill-rule="evenodd" clip-rule="evenodd"
        d="M8.60417 3.81149C8.95917 2.34816 11.0408 2.34816 11.3958 3.81149C11.5039 4.25737 11.8184 4.62484 12.2422 4.80044C12.6661 4.97605 13.1483 4.93866 13.54 4.69982C14.8258 3.91649 16.2983 5.38816 15.515 6.67482C15.2765 7.06637 15.2392 7.54822 15.4146 7.97181C15.59 8.39539 15.957 8.70982 16.4025 8.81816C17.8658 9.17316 17.8658 11.2548 16.4025 11.6098C15.9566 11.7179 15.5891 12.0324 15.4135 12.4562C15.2379 12.88 15.2753 13.3623 15.5142 13.754C16.2975 15.0398 14.8258 16.5123 13.5392 15.729C13.1476 15.4905 12.6658 15.4532 12.2422 15.6286C11.8186 15.804 11.5042 16.171 11.3958 16.6165C11.0408 18.0798 8.95917 18.0798 8.60417 16.6165C8.49613 16.1706 8.18164 15.8031 7.75779 15.6275C7.33394 15.4519 6.85172 15.4893 6.46 15.7282C5.17417 16.5115 3.70167 15.0398 4.485 13.7532C4.72349 13.3616 4.76079 12.8798 4.58539 12.4562C4.41 12.0326 4.04298 11.7182 3.5975 11.6098C2.13417 11.2548 2.13417 9.17316 3.5975 8.81816C4.04338 8.71012 4.41085 8.39563 4.58645 7.97178C4.76206 7.54793 4.72467 7.0657 4.48583 6.67399C3.7025 5.38816 5.17417 3.91566 6.46083 4.69899C7.29417 5.20566 8.37417 4.75732 8.60417 3.81149Z"
        stroke="white" stroke-opacity="0.5" stroke-width="2" stroke-linecap="round"
        stroke-linejoin="round" />
    <circle cx="10" cy="10.214" r="2.5" stroke="#4B465C" stroke-width="1.5" stroke-linecap="round"
        stroke-linejoin="round" />
    <circle cx="10" cy="10.214" r="2.5" stroke="white" stroke-opacity="0.2" stroke-width="1.5"
        stroke-linecap="round" stroke-linejoin="round" />
</svg>