<svg width="22" height="23" viewBox="0 0 22 23" fill="none" xmlns="http://www.w3.org/2000/svg">
<path d="M13.75 5.08331V6.91665" stroke="#17766B" stroke-width="1.5" stroke-linecap="round" stroke-linejoin="round"/>
<path d="M13.75 10.5833V12.4166" stroke="#17766B" stroke-width="1.5" stroke-linecap="round" stroke-linejoin="round"/>
<path d="M13.75 16.0833V17.9166" stroke="#17766B" stroke-width="1.5" stroke-linecap="round" stroke-linejoin="round"/>
<path d="M4.58333 5.08331H17.4167C18.4292 5.08331 19.25 5.90412 19.25 6.91665V9.66665C18.2375 9.66665 17.4167 10.4875 17.4167 11.5C17.4167 12.5125 18.2375 13.3333 19.25 13.3333V16.0833C19.25 17.0958 18.4292 17.9166 17.4167 17.9166H4.58333C3.57081 17.9166 2.75 17.0958 2.75 16.0833V13.3333C3.76252 13.3333 4.58333 12.5125 4.58333 11.5C4.58333 10.4875 3.76252 9.66665 2.75 9.66665V6.91665C2.75 5.90412 3.57081 5.08331 4.58333 5.08331" stroke="#17766B" stroke-width="1.5" stroke-linecap="round" stroke-linejoin="round"/>
</svg>
