<svg width="22" height="22" viewBox="0 0 22 22" fill="none" xmlns="http://www.w3.org/2000/svg">
    <path d="M3.6665 6.41667H18.3332" stroke="var(--payment-trash-icon)" stroke-width="1.5"
        stroke-linecap="round"
        stroke-linejoin="round" />
    <path d="M3.6665 6.41667H18.3332" stroke="white" stroke-opacity="0.1" stroke-width="1.5"
        stroke-linecap="round" stroke-linejoin="round" />
    <path d="M9.16683 10.0833V15.5833" stroke="var(--payment-trash-icon)" stroke-width="1.5"
        stroke-linecap="round"
        stroke-linejoin="round" />
    <path d="M9.16683 10.0833V15.5833" stroke="white" stroke-opacity="0.1" stroke-width="1.5"
        stroke-linecap="round" stroke-linejoin="round" />
    <path d="M12.8333 10.0833V15.5833" stroke="var(--payment-trash-icon)" stroke-width="1.5"
        stroke-linecap="round"
        stroke-linejoin="round" />
    <path d="M12.8333 10.0833V15.5833" stroke="white" stroke-opacity="0.1" stroke-width="1.5"
        stroke-linecap="round" stroke-linejoin="round" />
    <path
        d="M4.5835 6.41667L5.50016 17.4167C5.50016 18.4292 6.32097 19.25 7.3335 19.25H14.6668C15.6794 19.25 16.5002 18.4292 16.5002 17.4167L17.4168 6.41667"
        stroke="var(--payment-trash-icon)" stroke-width="1.5" stroke-linecap="round"
        stroke-linejoin="round" />
    <path
        d="M4.5835 6.41667L5.50016 17.4167C5.50016 18.4292 6.32097 19.25 7.3335 19.25H14.6668C15.6794 19.25 16.5002 18.4292 16.5002 17.4167L17.4168 6.41667"
        stroke="white" stroke-opacity="0.1" stroke-width="1.5" stroke-linecap="round"
        stroke-linejoin="round" />
    <path
        d="M8.25 6.41667V3.66667C8.25 3.16041 8.66041 2.75 9.16667 2.75H12.8333C13.3396 2.75 13.75 3.16041 13.75 3.66667V6.41667"
        stroke="var(--payment-trash-icon)" stroke-width="1.5" stroke-linecap="round"
        stroke-linejoin="round" />
    <path
        d="M8.25 6.41667V3.66667C8.25 3.16041 8.66041 2.75 9.16667 2.75H12.8333C13.3396 2.75 13.75 3.16041 13.75 3.66667V6.41667"
        stroke="white" stroke-opacity="0.1" stroke-width="1.5" stroke-linecap="round"
        stroke-linejoin="round" />
</svg>