<svg width="18" height="18" viewBox="0 0 24 24" fill="none" xmlns="http://www.w3.org/2000/svg">
    <circle cx="12" cy="12" r="8" fill="url(#paint0_linear_12_22504)" />
    <path
        d="M6.85 6.07C6.86 6.07 6.86 6.07 6.85 6.07ZM21.28 7.93C20.85 6.88 19.96 5.75 19.27 5.39C19.83 6.5 20.16 7.61 20.29 8.43V8.45C19.16 5.63 17.24 4.49 15.67 2.01C15.59 1.89 15.5 1.76 15.43 1.63C15.39 1.56 15.36 1.49 15.32 1.42C15.26 1.29 15.2 1.16 15.17 1.02C15.17 1.01 15.16 1 15.15 1H15.12C12.9 2.3 11.97 4.59 11.74 6.04C11.05 6.08 10.37 6.25 9.75 6.55C9.63 6.6 9.58 6.74 9.62 6.86C9.67 7 9.83 7.07 9.96 7.01C10.5 6.75 11.1 6.6 11.7 6.56H11.75C11.83 6.55 11.92 6.55 12 6.55C12.5 6.54 12.97 6.61 13.44 6.75L13.5 6.77C13.6 6.79 13.67 6.83 13.75 6.83C13.8 6.87 13.86 6.89 13.91 6.91L14.05 6.97C14.12 7 14.19 7.03 14.25 7.06C14.28 7.08 14.31 7.09 14.34 7.11C14.41 7.15 14.5 7.18 14.54 7.22C14.58 7.24 14.62 7.27 14.66 7.29C15.39 7.74 16 8.36 16.41 9.1C15.88 8.73 14.92 8.36 14 8.52C17.6 10.33 16.63 16.52 11.64 16.28C11.2 16.27 10.76 16.18 10.34 16.03C10.24 16 10.14 15.96 10.05 15.91C10 15.89 9.93 15.86 9.88 15.83C8.65 15.2 7.64 14.01 7.5 12.56C7.5 12.56 8 10.83 10.83 10.83C11.14 10.83 12 9.97 12.03 9.73C12.03 9.64 10.29 8.95 9.61 8.28C9.24 7.92 9.07 7.75 8.92 7.62C8.84 7.55 8.75 7.49 8.66 7.43C8.43017 6.63085 8.41981 5.78454 8.63 4.98C7.6 5.45 6.8 6.19 6.22 6.83C5.82 6.33 5.85 4.68 5.87 4.33C5.86 4.33 5.57 4.49 5.54 4.51C5.19 4.76 4.86 5.04 4.56 5.33C4.21 5.7 3.9 6.07 3.62 6.47C3 7.38 2.5 8.42 2.28 9.51C2.28 9.52 2.18 9.92 2.11 10.43L2.08 10.66C2.06 10.83 2.04 10.98 2 11.24V11.65C2 17.5 6 22 12 22C17.3074 22 21.5 18 21.88 13.33C21.9 13.22 21.91 13.09 21.93 12.96C22.13 11.24 21.91 9.44 21.28 7.93Z"
        fill="url(#paint1_linear_12_22504)" />
    <defs>
        <linearGradient id="paint0_linear_12_22504" x1="12.4706" y1="7.76471" x2="9.64706"
            y2="14.3529" gradientUnits="userSpaceOnUse">
            <stop stop-color="#008CFA" />
            <stop offset="1" stop-color="#233BB1" />
        </linearGradient>
        <linearGradient id="paint1_linear_12_22504" x1="17.5" y1="6" x2="4" y2="18"
            gradientUnits="userSpaceOnUse">
            <stop stop-color="#FFEF4C" />
            <stop offset="1" stop-color="#FC2530" />
        </linearGradient>
    </defs>
</svg>