<svg xmlns="http://www.w3.org/2000/svg" x="0px" y="0px" width="18" height="18"
    viewBox="0 0 100 100">

    <path fill="#40396e"
        d="M50,89c-21.505,0-39-17.495-39-39s17.495-39,39-39s39,17.495,39,39S71.505,89,50,89z M50,14 c-19.851,0-36,16.149-36,36s16.149,36,36,36s36-16.149,36-36S69.851,14,50,14z"></path>
    <circle cx="50" cy="50" r="32" fill="#70bfff"></circle>
    <path fill="#f2f2f2"
        d="M50,27.5c-0.553,0-1-0.447-1-1v-5c0-0.553,0.447-1,1-1s1,0.447,1,1v5C51,27.053,50.553,27.5,50,27.5 z"></path>
    <path fill="#f2f2f2"
        d="M50,79.5c-0.553,0-1-0.447-1-1v-5c0-0.553,0.447-1,1-1s1,0.447,1,1v5C51,79.053,50.553,79.5,50,79.5 z"></path>
    <path fill="#f2f2f2"
        d="M78.5,51.099c-0.001,0-0.002,0-0.004,0l-5-0.018c-0.552-0.002-0.998-0.451-0.996-1.004 c0.002-0.551,0.449-0.996,1-0.996c0.001,0,0.002,0,0.004,0l5,0.018c0.552,0.002,0.998,0.451,0.996,1.004 C79.498,50.653,79.051,51.099,78.5,51.099z"></path>
    <path fill="#f2f2f2"
        d="M26.5,50.919c-0.001,0-0.002,0-0.004,0l-5-0.018c-0.552-0.002-0.998-0.451-0.996-1.004 c0.002-0.551,0.449-0.996,1-0.996c0.001,0,0.002,0,0.004,0l5,0.018c0.552,0.002,0.998,0.451,0.996,1.004 C27.498,50.474,27.051,50.919,26.5,50.919z"></path>
    <path fill="#f2f2f2"
        d="M70.082,71.223c-0.257,0-0.514-0.099-0.71-0.296l-3.522-3.548 c-0.389-0.392-0.387-1.024,0.006-1.414c0.39-0.389,1.022-0.387,1.414,0.006l3.522,3.548c0.389,0.392,0.387,1.024-0.006,1.414 C70.592,71.126,70.337,71.223,70.082,71.223z"></path>
    <path fill="#f2f2f2"
        d="M33.44,34.325c-0.257,0-0.514-0.099-0.71-0.296l-3.522-3.548c-0.389-0.392-0.387-1.024,0.006-1.414 c0.39-0.389,1.022-0.388,1.414,0.006l3.522,3.548c0.389,0.392,0.387,1.024-0.006,1.414C33.95,34.229,33.695,34.325,33.44,34.325z"></path>
    <path fill="#f2f2f2"
        d="M58.781,29.202c-0.125,0-0.251-0.023-0.374-0.072c-0.512-0.206-0.76-0.789-0.554-1.302l1.868-4.638 c0.207-0.513,0.791-0.756,1.302-0.554c0.512,0.206,0.76,0.789,0.554,1.302l-1.868,4.638 C59.552,28.966,59.177,29.202,58.781,29.202z"></path>
    <path fill="#f2f2f2"
        d="M39.351,77.436c-0.125,0-0.251-0.023-0.374-0.072c-0.512-0.206-0.76-0.789-0.554-1.302l1.868-4.638 c0.207-0.513,0.79-0.757,1.302-0.554c0.512,0.206,0.76,0.789,0.554,1.302l-1.868,4.638C40.121,77.199,39.746,77.436,39.351,77.436 z"></path>
    <path fill="#f2f2f2"
        d="M76.398,61.741c-0.126,0-0.254-0.023-0.377-0.074l-4.631-1.885 c-0.512-0.208-0.758-0.791-0.549-1.303c0.207-0.512,0.793-0.758,1.303-0.549l4.631,1.885c0.512,0.208,0.758,0.791,0.549,1.303 C77.167,61.506,76.793,61.741,76.398,61.741z"></path>
    <path fill="#f2f2f2"
        d="M28.232,42.144c-0.126,0-0.254-0.023-0.377-0.074l-4.631-1.885 c-0.512-0.208-0.758-0.791-0.549-1.303c0.207-0.512,0.794-0.758,1.303-0.549l4.631,1.885c0.512,0.208,0.758,0.791,0.549,1.303 C29.001,41.908,28.627,42.144,28.232,42.144z"></path>
    <path fill="#f2f2f2"
        d="M71.622,41.796c-0.389,0-0.758-0.228-0.92-0.608c-0.217-0.508,0.021-1.096,0.528-1.312l4.601-1.958 c0.508-0.217,1.095,0.02,1.312,0.528c0.217,0.508-0.021,1.096-0.528,1.312l-4.601,1.958 C71.886,41.771,71.753,41.796,71.622,41.796z"></path>
    <path fill="#f2f2f2"
        d="M23.777,62.162c-0.389,0-0.758-0.228-0.92-0.608c-0.217-0.508,0.021-1.096,0.528-1.312l4.601-1.958 c0.508-0.216,1.095,0.02,1.312,0.528c0.217,0.508-0.021,1.096-0.528,1.312l-4.601,1.958 C24.041,62.137,23.908,62.162,23.777,62.162z"></path>
    <path fill="#f2f2f2"
        d="M61.071,77.262c-0.39,0-0.761-0.229-0.922-0.611l-1.942-4.607 c-0.214-0.509,0.024-1.096,0.533-1.311c0.508-0.211,1.096,0.024,1.311,0.533l1.942,4.607c0.214,0.509-0.024,1.096-0.533,1.311 C61.333,77.236,61.201,77.262,61.071,77.262z"></path>
    <path fill="#f2f2f2"
        d="M40.871,29.346c-0.39,0-0.761-0.229-0.922-0.611l-1.942-4.607 c-0.214-0.509,0.024-1.096,0.533-1.311c0.507-0.211,1.096,0.024,1.311,0.533l1.942,4.607c0.214,0.509-0.024,1.096-0.533,1.311 C41.133,29.32,41.001,29.346,40.871,29.346z"></path>
    <path fill="#f2f2f2"
        d="M44.475,25.082c-0.462,0-0.877-0.321-0.978-0.792l-0.416-1.955c-0.115-0.541,0.229-1.072,0.77-1.187 c0.53-0.123,1.071,0.228,1.186,0.77l0.417,1.956c0.115,0.54-0.229,1.071-0.77,1.186C44.614,25.075,44.544,25.082,44.475,25.082z"></path>
    <path fill="#f2f2f2"
        d="M55.94,78.874c-0.462,0-0.877-0.321-0.977-0.792l-0.417-1.956c-0.115-0.54,0.229-1.071,0.77-1.186 c0.531-0.121,1.07,0.228,1.187,0.77l0.416,1.955c0.115,0.541-0.229,1.072-0.77,1.187C56.08,78.867,56.01,78.874,55.94,78.874z"></path>
    <path fill="#f2f2f2"
        d="M55.525,25.082c-0.069,0-0.14-0.007-0.209-0.022c-0.541-0.114-0.885-0.646-0.77-1.186l0.417-1.956 c0.114-0.542,0.652-0.892,1.186-0.77c0.541,0.114,0.885,0.646,0.77,1.187l-0.416,1.955C56.402,24.761,55.987,25.082,55.525,25.082z"></path>
    <path fill="#f2f2f2"
        d="M44.06,78.874c-0.069,0-0.14-0.007-0.209-0.022c-0.541-0.114-0.885-0.646-0.77-1.187l0.416-1.955 c0.116-0.542,0.652-0.89,1.187-0.77c0.541,0.114,0.885,0.646,0.77,1.186l-0.417,1.956C44.937,78.553,44.521,78.874,44.06,78.874z"></path>
    <path fill="#f2f2f2"
        d="M64.42,28.768c-0.187,0-0.375-0.052-0.543-0.161c-0.463-0.3-0.596-0.919-0.295-1.383l1.088-1.679 c0.3-0.463,0.919-0.597,1.383-0.295c0.463,0.3,0.596,0.919,0.295,1.383l-1.088,1.679C65.068,28.606,64.748,28.768,64.42,28.768z"></path>
    <path fill="#f2f2f2"
        d="M34.49,74.911c-0.187,0-0.375-0.052-0.543-0.161c-0.463-0.3-0.596-0.919-0.295-1.383l1.088-1.679 c0.3-0.462,0.92-0.598,1.383-0.295c0.463,0.3,0.596,0.919,0.295,1.383l-1.088,1.679C35.139,74.75,34.818,74.911,34.49,74.911z"></path>
    <path fill="#f2f2f2"
        d="M72.233,36.579c-0.328,0-0.648-0.161-0.84-0.456c-0.301-0.464-0.168-1.083,0.295-1.383l1.679-1.088 c0.463-0.302,1.082-0.168,1.383,0.295c0.301,0.464,0.168,1.083-0.295,1.383l-1.679,1.088C72.608,36.527,72.42,36.579,72.233,36.579 z"></path>
    <path fill="#f2f2f2"
        d="M26.09,66.509c-0.328,0-0.648-0.161-0.84-0.456c-0.301-0.464-0.168-1.083,0.295-1.383l1.679-1.088 c0.463-0.302,1.083-0.167,1.383,0.295c0.301,0.464,0.168,1.083-0.295,1.383l-1.679,1.088C26.465,66.457,26.276,66.509,26.09,66.509 z"></path>
    <path fill="#f2f2f2"
        d="M75.936,45.565c-0.463,0-0.879-0.323-0.978-0.795c-0.113-0.541,0.233-1.07,0.773-1.184l1.958-0.41 c0.537-0.114,1.07,0.232,1.184,0.773s-0.233,1.07-0.773,1.184l-1.958,0.41C76.072,45.559,76.004,45.565,75.936,45.565z"></path>
    <path fill="#f2f2f2"
        d="M22.104,56.845c-0.463,0-0.879-0.323-0.978-0.795c-0.113-0.541,0.233-1.07,0.773-1.184l1.958-0.41 c0.538-0.112,1.07,0.232,1.184,0.773s-0.233,1.07-0.773,1.184l-1.958,0.41C22.241,56.838,22.173,56.845,22.104,56.845z"></path>
    <path fill="#f2f2f2"
        d="M77.854,57.038c-0.07,0-0.142-0.007-0.213-0.022l-1.955-0.424c-0.54-0.117-0.883-0.649-0.766-1.189 s0.651-0.884,1.189-0.766l1.955,0.424c0.54,0.117,0.883,0.649,0.766,1.189C78.729,56.719,78.315,57.038,77.854,57.038z"></path>
    <path fill="#f2f2f2"
        d="M24.103,45.386c-0.07,0-0.142-0.007-0.213-0.022l-1.955-0.424c-0.54-0.117-0.883-0.649-0.766-1.189 s0.651-0.882,1.189-0.766l1.955,0.424c0.54,0.117,0.883,0.649,0.766,1.189C24.978,45.066,24.563,45.386,24.103,45.386z"></path>
    <path fill="#f2f2f2"
        d="M73.802,66.675c-0.188,0-0.38-0.054-0.549-0.165l-1.671-1.101c-0.462-0.304-0.589-0.924-0.285-1.385 c0.305-0.461,0.925-0.588,1.385-0.285l1.671,1.101c0.462,0.304,0.589,0.924,0.285,1.385C74.445,66.517,74.127,66.675,73.802,66.675 z"></path>
    <g>
        <path fill="#f2f2f2"
            d="M27.867,36.426c-0.188,0-0.38-0.054-0.549-0.165l-1.671-1.101c-0.462-0.304-0.589-0.924-0.285-1.385 s0.925-0.589,1.385-0.285l1.671,1.101c0.462,0.304,0.589,0.924,0.285,1.385C28.511,36.268,28.192,36.426,27.867,36.426z"></path>
    </g>
    <g>
        <path fill="#f2f2f2"
            d="M65.344,75.018c-0.33,0-0.652-0.163-0.844-0.462l-1.077-1.686c-0.297-0.465-0.161-1.083,0.305-1.381 c0.462-0.297,1.083-0.161,1.381,0.305l1.077,1.686c0.297,0.465,0.161,1.083-0.305,1.381C65.715,74.967,65.528,75.018,65.344,75.018 z"></path>
    </g>
    <g>
        <path fill="#f2f2f2"
            d="M35.735,28.668c-0.33,0-0.652-0.163-0.844-0.462l-1.077-1.686c-0.297-0.465-0.161-1.083,0.305-1.381 c0.464-0.297,1.082-0.161,1.381,0.305l1.077,1.686c0.297,0.465,0.161,1.083-0.305,1.381C36.106,28.617,35.92,28.668,35.735,28.668z"></path>
    </g>
    <g>
        <path fill="#ff7575" d="M53.727,53.444l-7.454-7.257L71.326,28.31L53.727,53.444z"></path>
    </g>
    <g>
        <path fill="#d9eeff" d="M53.727,53.444l-7.454-7.257L28.674,71.32L53.727,53.444z"></path>
    </g>
    <g opacity=".35">
        <path fill="#40396e" d="M28.674,71.32l25.053-17.876L71.326,28.31L28.674,71.32z"></path>
    </g>
</svg>