<svg width="60" height="59" viewBox="0 0 60 59" fill="none" xmlns="http://www.w3.org/2000/svg">
    <path
        d="M60 41V15H50.8475C50.2851 15 49.8305 15.447 49.8305 16C49.8305 16.553 50.2851 17 50.8475 17H57.9661V39H11.1864V17H18.3051C18.8675 17 19.322 16.553 19.322 16C19.322 15.447 18.8675 15 18.3051 15H11.1864V7C11.1864 6.447 10.7319 6 10.1695 6H7.99119C7.53661 4.28 5.95831 3 4.0678 3C1.82441 3 0 4.794 0 7C0 9.206 1.82441 11 4.0678 11C5.95831 11 7.53661 9.72 7.99119 8H9.15254V15V16V40V41V47C9.15254 47.553 9.60712 48 10.1695 48H17.3197C16.0739 48.912 15.2542 50.359 15.2542 52C15.2542 54.757 17.5353 57 20.339 57C23.1427 57 25.4237 54.757 25.4237 52C25.4237 50.359 24.6041 48.912 23.3583 48H41.7264C40.4807 48.912 39.661 50.359 39.661 52C39.661 54.757 41.942 57 44.7458 57C47.5495 57 49.8305 54.757 49.8305 52C49.8305 50.359 49.0109 48.912 47.7651 48H53.8983C54.4607 48 54.9153 47.553 54.9153 47C54.9153 46.447 54.4607 46 53.8983 46H11.1864V41H60ZM4.0678 9C2.9461 9 2.0339 8.103 2.0339 7C2.0339 5.897 2.9461 5 4.0678 5C4.81729 5 5.4661 5.405 5.81898 6H5.08475C4.52237 6 4.0678 6.447 4.0678 7C4.0678 7.553 4.52237 8 5.08475 8H5.81898C5.4661 8.595 4.81729 9 4.0678 9ZM20.339 55C18.6569 55 17.2881 53.654 17.2881 52C17.2881 50.346 18.6569 49 20.339 49C22.021 49 23.3898 50.346 23.3898 52C23.3898 53.654 22.021 55 20.339 55ZM44.7458 55C43.0637 55 41.6949 53.654 41.6949 52C41.6949 50.346 43.0637 49 44.7458 49C46.4278 49 47.7966 50.346 47.7966 52C47.7966 53.654 46.4278 55 44.7458 55Z"
        fill="var(--payment-cart-color)" />
    <path
        d="M60 41V15H50.8475C50.2851 15 49.8305 15.447 49.8305 16C49.8305 16.553 50.2851 17 50.8475 17H57.9661V39H11.1864V17H18.3051C18.8675 17 19.322 16.553 19.322 16C19.322 15.447 18.8675 15 18.3051 15H11.1864V7C11.1864 6.447 10.7319 6 10.1695 6H7.99119C7.53661 4.28 5.95831 3 4.0678 3C1.82441 3 0 4.794 0 7C0 9.206 1.82441 11 4.0678 11C5.95831 11 7.53661 9.72 7.99119 8H9.15254V15V16V40V41V47C9.15254 47.553 9.60712 48 10.1695 48H17.3197C16.0739 48.912 15.2542 50.359 15.2542 52C15.2542 54.757 17.5353 57 20.339 57C23.1427 57 25.4237 54.757 25.4237 52C25.4237 50.359 24.6041 48.912 23.3583 48H41.7264C40.4807 48.912 39.661 50.359 39.661 52C39.661 54.757 41.942 57 44.7458 57C47.5495 57 49.8305 54.757 49.8305 52C49.8305 50.359 49.0109 48.912 47.7651 48H53.8983C54.4607 48 54.9153 47.553 54.9153 47C54.9153 46.447 54.4607 46 53.8983 46H11.1864V41H60ZM4.0678 9C2.9461 9 2.0339 8.103 2.0339 7C2.0339 5.897 2.9461 5 4.0678 5C4.81729 5 5.4661 5.405 5.81898 6H5.08475C4.52237 6 4.0678 6.447 4.0678 7C4.0678 7.553 4.52237 8 5.08475 8H5.81898C5.4661 8.595 4.81729 9 4.0678 9ZM20.339 55C18.6569 55 17.2881 53.654 17.2881 52C17.2881 50.346 18.6569 49 20.339 49C22.021 49 23.3898 50.346 23.3898 52C23.3898 53.654 22.021 55 20.339 55ZM44.7458 55C43.0637 55 41.6949 53.654 41.6949 52C41.6949 50.346 43.0637 49 44.7458 49C46.4278 49 47.7966 50.346 47.7966 52C47.7966 53.654 46.4278 55 44.7458 55Z"
        fill="white" fill-opacity="0.2" />
    <path
        d="M34.5762 30C42.427 30 48.8134 23.72 48.8134 16C48.8134 8.28 42.427 2 34.5762 2C26.7253 2 20.3389 8.28 20.3389 16C20.3389 23.72 26.7253 30 34.5762 30ZM34.5762 4C41.3053 4 46.7795 9.383 46.7795 16C46.7795 22.617 41.3053 28 34.5762 28C27.847 28 22.3728 22.617 22.3728 16C22.3728 9.383 27.847 4 34.5762 4Z"
        fill="var(--payment-cart-color)" />
    <path
        d="M34.5762 30C42.427 30 48.8134 23.72 48.8134 16C48.8134 8.28 42.427 2 34.5762 2C26.7253 2 20.3389 8.28 20.3389 16C20.3389 23.72 26.7253 30 34.5762 30ZM34.5762 4C41.3053 4 46.7795 9.383 46.7795 16C46.7795 22.617 41.3053 28 34.5762 28C27.847 28 22.3728 22.617 22.3728 16C22.3728 9.383 27.847 4 34.5762 4Z"
        fill="white" fill-opacity="0.2" />
    <path
        d="M32.9072 21.769C32.9733 21.822 33.0475 21.854 33.1218 21.889C33.1523 21.904 33.1797 21.928 33.2113 21.939C33.3231 21.979 33.4411 22 33.558 22C33.7004 22 33.8428 21.969 33.974 21.911C34.0238 21.889 34.0614 21.845 34.1082 21.815C34.1804 21.768 34.2577 21.731 34.3177 21.664L34.337 21.642C34.337 21.642 34.338 21.641 34.3391 21.641C34.3391 21.641 34.3401 21.64 34.3401 21.639L42.4523 12.664C42.8255 12.252 42.7879 11.619 42.3679 11.253C41.9479 10.885 41.3052 10.922 40.933 11.336L33.4523 19.612L28.1072 15.232C27.673 14.879 27.0343 14.936 26.6743 15.36C26.3143 15.785 26.3733 16.416 26.8045 16.769L32.9072 21.769Z"
        fill="var(--payment-cart-color)" />
    <path
        d="M32.9072 21.769C32.9733 21.822 33.0475 21.854 33.1218 21.889C33.1523 21.904 33.1797 21.928 33.2113 21.939C33.3231 21.979 33.4411 22 33.558 22C33.7004 22 33.8428 21.969 33.974 21.911C34.0238 21.889 34.0614 21.845 34.1082 21.815C34.1804 21.768 34.2577 21.731 34.3177 21.664L34.337 21.642C34.337 21.642 34.338 21.641 34.3391 21.641C34.3391 21.641 34.3401 21.64 34.3401 21.639L42.4523 12.664C42.8255 12.252 42.7879 11.619 42.3679 11.253C41.9479 10.885 41.3052 10.922 40.933 11.336L33.4523 19.612L28.1072 15.232C27.673 14.879 27.0343 14.936 26.6743 15.36C26.3143 15.785 26.3733 16.416 26.8045 16.769L32.9072 21.769Z"
        fill="white" fill-opacity="0.2" />
</svg>