<svg width="60" height="60" viewBox="0 0 60 60" fill="none" xmlns="http://www.w3.org/2000/svg">
    <g clip-path="url(#clip0_74_1839)">
        <path
            d="M8 16H23C23.552 16 24 15.553 24 15C24 14.447 23.552 14 23 14H8C7.448 14 7 14.447 7 15C7 15.553 7.448 16 8 16Z"
            fill="var(--payment-confirmation-color)" />
        <path
            d="M8 16H23C23.552 16 24 15.553 24 15C24 14.447 23.552 14 23 14H8C7.448 14 7 14.447 7 15C7 15.553 7.448 16 8 16Z"
            fill="white" fill-opacity="0.2" />
        <path
            d="M8 13H17C17.552 13 18 12.553 18 12C18 11.447 17.552 11 17 11H8C7.448 11 7 11.447 7 12C7 12.553 7.448 13 8 13Z"
            fill="var(--payment-confirmation-color)" />
        <path
            d="M8 13H17C17.552 13 18 12.553 18 12C18 11.447 17.552 11 17 11H8C7.448 11 7 11.447 7 12C7 12.553 7.448 13 8 13Z"
            fill="white" fill-opacity="0.2" />
        <path
            d="M24 18C24 17.447 23.552 17 23 17H8C7.448 17 7 17.447 7 18C7 18.553 7.448 19 8 19H23C23.552 19 24 18.553 24 18Z"
            fill="var(--payment-confirmation-color)" />
        <path
            d="M24 18C24 17.447 23.552 17 23 17H8C7.448 17 7 17.447 7 18C7 18.553 7.448 19 8 19H23C23.552 19 24 18.553 24 18Z"
            fill="white" fill-opacity="0.2" />
        <path
            d="M60 4H31V1C31 0.447 30.552 0 30 0C29.448 0 29 0.447 29 1V4H0V46H27.586L15.293 58.293C14.902 58.684 14.902 59.316 15.293 59.707C15.488 59.902 15.744 60 16 60C16.256 60 16.512 59.902 16.707 59.707L29 47.414V57C29 57.553 29.448 58 30 58C30.552 58 31 57.553 31 57V47.414L43.293 59.707C43.488 59.902 43.744 60 44 60C44.256 60 44.512 59.902 44.707 59.707C45.098 59.316 45.098 58.684 44.707 58.293L32.414 46H60V4ZM58 44H2V6H58V44Z"
            fill="var(--payment-confirmation-color)" />
        <path
            d="M60 4H31V1C31 0.447 30.552 0 30 0C29.448 0 29 0.447 29 1V4H0V46H27.586L15.293 58.293C14.902 58.684 14.902 59.316 15.293 59.707C15.488 59.902 15.744 60 16 60C16.256 60 16.512 59.902 16.707 59.707L29 47.414V57C29 57.553 29.448 58 30 58C30.552 58 31 57.553 31 57V47.414L43.293 59.707C43.488 59.902 43.744 60 44 60C44.256 60 44.512 59.902 44.707 59.707C45.098 59.316 45.098 58.684 44.707 58.293L32.414 46H60V4ZM58 44H2V6H58V44Z"
            fill="white" fill-opacity="0.2" />
        <path
            d="M41.0002 20H45.5862L33.6002 31.986L25.3072 23.693C24.9162 23.302 24.2842 23.302 23.8932 23.693L11.2932 36.293C10.9022 36.684 10.9022 37.316 11.2932 37.707C11.4882 37.902 11.7442 38 12.0002 38C12.2562 38 12.5122 37.902 12.7072 37.707L24.6003 25.814L32.8933 34.107C33.0883 34.302 33.3442 34.4 33.6002 34.4C33.8562 34.4 34.1122 34.302 34.3072 34.107L47.0002 21.414V26C47.0002 26.553 47.4472 27 48.0002 27C48.5532 27 49.0002 26.553 49.0002 26V19C49.0002 18.87 48.9742 18.74 48.9232 18.618C48.8222 18.373 48.6272 18.178 48.3822 18.077C48.2602 18.026 48.1302 18 48.0002 18H41.0002C40.4482 18 40.0002 18.447 40.0002 19C40.0002 19.553 40.4482 20 41.0002 20Z"
            fill="var(--payment-confirmation-color)" />
        <path
            d="M41.0002 20H45.5862L33.6002 31.986L25.3072 23.693C24.9162 23.302 24.2842 23.302 23.8932 23.693L11.2932 36.293C10.9022 36.684 10.9022 37.316 11.2932 37.707C11.4882 37.902 11.7442 38 12.0002 38C12.2562 38 12.5122 37.902 12.7072 37.707L24.6003 25.814L32.8933 34.107C33.0883 34.302 33.3442 34.4 33.6002 34.4C33.8562 34.4 34.1122 34.302 34.3072 34.107L47.0002 21.414V26C47.0002 26.553 47.4472 27 48.0002 27C48.5532 27 49.0002 26.553 49.0002 26V19C49.0002 18.87 48.9742 18.74 48.9232 18.618C48.8222 18.373 48.6272 18.178 48.3822 18.077C48.2602 18.026 48.1302 18 48.0002 18H41.0002C40.4482 18 40.0002 18.447 40.0002 19C40.0002 19.553 40.4482 20 41.0002 20Z"
            fill="white" fill-opacity="0.2" />
    </g>
    <defs>
        <clipPath id="clip0_74_1839">
            <rect width="60" height="60" fill="white" />
        </clipPath>
    </defs>
</svg>