<svg width="60" height="60" viewBox="0 0 60 60" fill="none" xmlns="http://www.w3.org/2000/svg">
    <g clip-path="url(#clip0_74_1822)">
        <path d="M9 26H17V16H9V26ZM11 18H15V24H11V18Z" fill="var(--payment-color)" />
        <path d="M9 26H17V16H9V26ZM11 18H15V24H11V18Z" fill="white" fill-opacity="0.2" />
        <path d="M9 38H17V28H9V38ZM11 30H15V36H11V30Z" fill="var(--payment-color)" />
        <path d="M9 38H17V28H9V38ZM11 30H15V36H11V30Z" fill="white" fill-opacity="0.2" />
        <path d="M9 50H17V40H9V50ZM11 42H15V48H11V42Z" fill="var(--payment-color)" />
        <path d="M9 50H17V40H9V50ZM11 42H15V48H11V42Z" fill="white" fill-opacity="0.2" />
        <path
            d="M36 25C35.447 25 35 25.447 35 26V35C35 35.553 35.447 36 36 36C36.553 36 37 35.553 37 35V26C37 25.447 36.553 25 36 25Z"
            fill="var(--payment-color)" />
        <path
            d="M36 25C35.447 25 35 25.447 35 26V35C35 35.553 35.447 36 36 36C36.553 36 37 35.553 37 35V26C37 25.447 36.553 25 36 25Z"
            fill="white" fill-opacity="0.2" />
        <path
            d="M36 38C35.447 38 35 38.447 35 39V48C35 48.553 35.447 49 36 49C36.553 49 37 48.553 37 48V39C37 38.447 36.553 38 36 38Z"
            fill="var(--payment-color)" />
        <path
            d="M36 38C35.447 38 35 38.447 35 39V48C35 48.553 35.447 49 36 49C36.553 49 37 48.553 37 48V39C37 38.447 36.553 38 36 38Z"
            fill="white" fill-opacity="0.2" />
        <path
            d="M31 25C30.447 25 30 25.447 30 26V27C30 27.553 30.447 28 31 28C31.553 28 32 27.553 32 27V26C32 25.447 31.553 25 31 25Z"
            fill="var(--payment-color)" />
        <path
            d="M31 25C30.447 25 30 25.447 30 26V27C30 27.553 30.447 28 31 28C31.553 28 32 27.553 32 27V26C32 25.447 31.553 25 31 25Z"
            fill="white" fill-opacity="0.2" />
        <path
            d="M31 30C30.447 30 30 30.447 30 31V33C30 33.553 30.447 34 31 34C31.553 34 32 33.553 32 33V31C32 30.447 31.553 30 31 30Z"
            fill="var(--payment-color)" />
        <path
            d="M31 30C30.447 30 30 30.447 30 31V33C30 33.553 30.447 34 31 34C31.553 34 32 33.553 32 33V31C32 30.447 31.553 30 31 30Z"
            fill="white" fill-opacity="0.2" />
        <path
            d="M31 36C30.447 36 30 36.447 30 37V38C30 38.553 30.447 39 31 39C31.553 39 32 38.553 32 38V37C32 36.447 31.553 36 31 36Z"
            fill="var(--payment-color)" />
        <path
            d="M31 36C30.447 36 30 36.447 30 37V38C30 38.553 30.447 39 31 39C31.553 39 32 38.553 32 38V37C32 36.447 31.553 36 31 36Z"
            fill="white" fill-opacity="0.2" />
        <path
            d="M31 41C30.447 41 30 41.447 30 42V44C30 44.553 30.447 45 31 45C31.553 45 32 44.553 32 44V42C32 41.447 31.553 41 31 41Z"
            fill="var(--payment-color)" />
        <path
            d="M31 41C30.447 41 30 41.447 30 42V44C30 44.553 30.447 45 31 45C31.553 45 32 44.553 32 44V42C32 41.447 31.553 41 31 41Z"
            fill="white" fill-opacity="0.2" />
        <path
            d="M30.29 47.2901C30.109 47.4791 30 47.7401 30 48.0001C30 48.2701 30.109 48.52 30.29 48.71C30.479 48.89 30.74 49.0001 31 49.0001C31.26 49.0001 31.52 48.89 31.71 48.71C31.89 48.52 32 48.2701 32 48.0001C32 47.7401 31.89 47.4791 31.71 47.2901C31.33 46.9201 30.68 46.9101 30.29 47.2901Z"
            fill="var(--payment-color)" />
        <path
            d="M30.29 47.2901C30.109 47.4791 30 47.7401 30 48.0001C30 48.2701 30.109 48.52 30.29 48.71C30.479 48.89 30.74 49.0001 31 49.0001C31.26 49.0001 31.52 48.89 31.71 48.71C31.89 48.52 32 48.2701 32 48.0001C32 47.7401 31.89 47.4791 31.71 47.2901C31.33 46.9201 30.68 46.9101 30.29 47.2901Z"
            fill="white" fill-opacity="0.2" />
        <path
            d="M48 2H0V9H3V53.783C3 56.108 4.892 58 7.217 58H40.783C43.108 58 45 56.108 45 53.783V9H48V2ZM43 53.783C43 55.006 42.006 56 40.783 56H7.217C5.994 56 5 55.006 5 53.783V7H9V14H17V7H26V11.255V12.745V18.745C26 19.988 27.012 21 28.255 21H36.255H37.745C38.988 21 40 19.988 40 18.745V11.255V7H43V53.783ZM11 7H15V12H11V7ZM34 7V9H32V7H34ZM38 7V9.026C37.915 9.016 37.832 9 37.745 9H36V7H38ZM28.255 19C28.114 19 28 18.886 28 18.745V14.974C28.085 14.984 28.168 15 28.255 15H30V19H28.255ZM32 15H33.745C33.886 15 34 15.114 34 15.255V18.745C34 18.832 34.016 18.915 34.026 19H32V15ZM36 18.745V15.255C36 14.012 34.988 13 33.745 13H28.255C28.114 13 28 12.886 28 12.745V11.255C28 11.114 28.114 11 28.255 11H37.745C37.886 11 38 11.114 38 11.255V18.745C38 18.886 37.886 19 37.745 19H36.255C36.114 19 36 18.886 36 18.745ZM30 9H28.255C28.168 9 28.085 9.016 28 9.026V7H30V9ZM46 7H45V5H40H26H17H9H3V7H2V4H46V7Z"
            fill="var(--payment-color)" />
        <path
            d="M48 2H0V9H3V53.783C3 56.108 4.892 58 7.217 58H40.783C43.108 58 45 56.108 45 53.783V9H48V2ZM43 53.783C43 55.006 42.006 56 40.783 56H7.217C5.994 56 5 55.006 5 53.783V7H9V14H17V7H26V11.255V12.745V18.745C26 19.988 27.012 21 28.255 21H36.255H37.745C38.988 21 40 19.988 40 18.745V11.255V7H43V53.783ZM11 7H15V12H11V7ZM34 7V9H32V7H34ZM38 7V9.026C37.915 9.016 37.832 9 37.745 9H36V7H38ZM28.255 19C28.114 19 28 18.886 28 18.745V14.974C28.085 14.984 28.168 15 28.255 15H30V19H28.255ZM32 15H33.745C33.886 15 34 15.114 34 15.255V18.745C34 18.832 34.016 18.915 34.026 19H32V15ZM36 18.745V15.255C36 14.012 34.988 13 33.745 13H28.255C28.114 13 28 12.886 28 12.745V11.255C28 11.114 28.114 11 28.255 11H37.745C37.886 11 38 11.114 38 11.255V18.745C38 18.886 37.886 19 37.745 19H36.255C36.114 19 36 18.886 36 18.745ZM30 9H28.255C28.168 9 28.085 9.016 28 9.026V7H30V9ZM46 7H45V5H40H26H17H9H3V7H2V4H46V7Z"
            fill="white" fill-opacity="0.2" />
        <path
            d="M59.7073 34.293L53.7083 28.294C53.6163 28.201 53.5053 28.128 53.3823 28.077C53.1383 27.976 52.8633 27.976 52.6183 28.077C52.4953 28.128 52.3843 28.202 52.2923 28.294L46.2932 34.293C45.9022 34.684 45.9022 35.316 46.2932 35.707C46.4882 35.902 46.7443 36 47.0003 36C47.2563 36 47.5123 35.902 47.7073 35.707L52.0003 31.414V57C52.0003 57.553 52.4473 58 53.0003 58C53.5533 58 54.0003 57.553 54.0003 57V31.414L58.2933 35.707C58.4883 35.902 58.7443 36 59.0003 36C59.2563 36 59.5123 35.902 59.7073 35.707C60.0983 35.316 60.0983 34.684 59.7073 34.293Z"
            fill="var(--payment-color)" />
        <path
            d="M59.7073 34.293L53.7083 28.294C53.6163 28.201 53.5053 28.128 53.3823 28.077C53.1383 27.976 52.8633 27.976 52.6183 28.077C52.4953 28.128 52.3843 28.202 52.2923 28.294L46.2932 34.293C45.9022 34.684 45.9022 35.316 46.2932 35.707C46.4882 35.902 46.7443 36 47.0003 36C47.2563 36 47.5123 35.902 47.7073 35.707L52.0003 31.414V57C52.0003 57.553 52.4473 58 53.0003 58C53.5533 58 54.0003 57.553 54.0003 57V31.414L58.2933 35.707C58.4883 35.902 58.7443 36 59.0003 36C59.2563 36 59.5123 35.902 59.7073 35.707C60.0983 35.316 60.0983 34.684 59.7073 34.293Z"
            fill="white" fill-opacity="0.2" />
    </g>
    <defs>
        <clipPath id="clip0_74_1822">
            <rect width="60" height="60" fill="white" />
        </clipPath>
    </defs>
</svg>