<svg id="Layer_1" data-name="Layer 1" xmlns="http://www.w3.org/2000/svg" viewBox="0 0 20 14.01">
    <defs>
        <style>.favicon-cls-1{fill:#30998c;}.favicon-cls-2{fill:#17766b;}</style>
    </defs>
    <path class="favicon-cls-1"
        d="M20,1l-1.55,9.48a.48.48,0,0,1-.17.3.47.47,0,0,1-.32.12H8.43a.45.45,0,0,1-.2,0,.45.45,0,0,1-.17-.13.5.5,0,0,1-.1-.19.55.55,0,0,1,0-.22l.19-1.18A15,15,0,0,0,10.36,9c4.5-.59,6.75-2.74,7.61-3.83L12.86,4h0l-1.72-.38.26,1.48a13.41,13.41,0,0,1-2.84,1.4L9.5.81a.54.54,0,0,1,.17-.3A.53.53,0,0,1,10,.39h9.52a.46.46,0,0,1,.2,0,.45.45,0,0,1,.17.13.5.5,0,0,1,.1.19A.38.38,0,0,1,20,1Z" />
    <path class="favicon-cls-2"
        d="M12.58,11.66l-.26,1.58a.54.54,0,0,1-.17.3.49.49,0,0,1-.31.11H2.32a.49.49,0,0,1-.21,0,.55.55,0,0,1-.17-.13.5.5,0,0,1-.1-.19.54.54,0,0,1,0-.22l.81-4.94a11.53,11.53,0,0,1-2.5-1.6A.36.36,0,0,1,0,6.3.42.42,0,0,1,.05,6a.34.34,0,0,1,.2-.17.39.39,0,0,1,.26,0l0,0h0a10.27,10.27,0,0,0,2.33.77l.5-3a.54.54,0,0,1,.17-.3.52.52,0,0,1,.32-.11H8.32L7.8,6.38l-.07.43A10.4,10.4,0,0,1,.39,6.23a12.73,12.73,0,0,0,7,2.83l-.06.39-.12.71a1.32,1.32,0,0,0,0,.56,1.34,1.34,0,0,0,.25.49,1.31,1.31,0,0,0,.44.33,1.24,1.24,0,0,0,.53.12Z" />
</svg>