<svg width="161" height="161" viewBox="0 0 161 161" fill="none" xmlns="http://www.w3.org/2000/svg">
<path d="M145.02 17.6094V161H34.5137V17.6094H119.461H145.02Z" fill="#17766B"/>
<path d="M126.486 25.5789V143.391H16V0H100.928L126.486 25.5789Z" fill="#B0D5D0"/>
<path d="M100.928 0L126.486 25.5789H100.928V0Z" fill="#17766B"/>
<path d="M71.7465 35.6621H38.5201C35.4747 35.6621 33.0059 38.1309 33.0059 41.1764C33.0059 44.2218 35.4747 46.6906 38.5201 46.6906H71.7465C74.7919 46.6906 77.2607 44.2218 77.2607 41.1764C77.2607 38.1309 74.7919 35.6621 71.7465 35.6621Z" fill="white"/>
<path d="M103.967 56.9746H38.5201C35.4747 56.9746 33.0059 59.4434 33.0059 62.4889C33.0059 65.5343 35.4747 68.0031 38.5201 68.0031H103.967C107.012 68.0031 109.481 65.5343 109.481 62.4889C109.481 59.4434 107.012 56.9746 103.967 56.9746Z" fill="white"/>
<path d="M89.4766 78.2656H38.5201C35.4747 78.2656 33.0059 80.7344 33.0059 83.7799C33.0059 86.8253 35.4747 89.2941 38.5201 89.2941H89.4766C92.522 89.2941 94.9909 86.8253 94.9909 83.7799C94.9909 80.7344 92.522 78.2656 89.4766 78.2656Z" fill="white"/>
<path d="M109.3 156.593C127.45 156.593 142.164 141.88 142.164 123.729C142.164 105.579 127.45 90.8652 109.3 90.8652C91.1493 90.8652 76.4355 105.579 76.4355 123.729C76.4355 141.88 91.1493 156.593 109.3 156.593Z" fill="white"/>
<path fill-rule="evenodd" clip-rule="evenodd" d="M109.801 107.769C109.801 106.675 110.017 105.593 110.436 104.583C110.855 103.574 111.469 102.656 112.243 101.884C113.017 101.112 113.935 100.5 114.946 100.084C115.957 99.6674 117.04 99.4544 118.133 99.4571C119.231 99.4607 120.318 99.6795 121.333 100.101C122.34 100.516 123.257 101.124 124.029 101.892C124.801 102.666 125.417 103.582 125.841 104.589C126.264 105.596 126.483 106.677 126.485 107.769C126.482 108.863 126.264 109.946 125.843 110.956C125.422 111.965 124.806 112.882 124.03 113.654C123.255 114.426 122.335 115.038 121.323 115.454C120.311 115.87 119.227 116.083 118.133 116.08C117.012 116.094 115.9 115.882 114.862 115.457C113.825 115.031 112.884 114.402 112.095 113.605L100.624 121.474C100.945 123.074 100.784 124.734 100.161 126.243L112.84 134.575C114.325 133.352 116.189 132.683 118.113 132.683C119.209 132.688 120.295 132.9 121.313 133.307C122.32 133.731 123.236 134.347 124.009 135.119C125.572 136.676 126.454 138.789 126.465 140.995C126.359 143.137 125.435 145.156 123.882 146.634C122.329 148.112 120.267 148.937 118.123 148.937C115.979 148.937 113.917 148.112 112.364 146.634C110.811 145.156 109.886 143.137 109.781 140.995C109.772 139.831 110.012 138.678 110.485 137.614L97.9273 129.363C96.3994 130.676 94.4476 131.391 92.4332 131.375C91.354 131.387 90.2822 131.196 89.2736 130.812C87.4465 130.105 85.9271 128.776 84.9822 127.06C84.0374 125.344 83.7275 123.349 84.1071 121.427C84.4867 119.505 85.5315 117.779 87.0579 116.55C88.5842 115.322 90.4946 114.671 92.4533 114.712C93.7116 114.709 94.954 114.992 96.087 115.539C97.22 116.087 98.214 116.884 98.9939 117.871L110.204 110.244C109.938 109.446 109.802 108.61 109.801 107.769Z" fill="#17766B"/>
</svg>
