<svg id="Layer_1" data-name="Layer 1" xmlns="http://www.w3.org/2000/svg" viewBox="0 0 48 48">
    <defs>
        <style>.audio-cs-1,.audio-cs-2{fill:#17766b;}.audio-cs-1{opacity:0.2;}</style>
    </defs>
    <circle class="audio-cs-1" cx="24" cy="24" r="24" />
    <path class="audio-cs-2"
        d="M34.46,12H20a1.49,1.49,0,0,0-1.05.44L12.48,19A1.53,1.53,0,0,0,12,20V34.46A1.5,1.5,0,0,0,13.54,36H34.46A1.49,1.49,0,0,0,36,34.46V13.54A1.49,1.49,0,0,0,34.46,12ZM28.21,22a1.06,1.06,0,0,1-1.49,0l-1-1v6.37s0,.08,0,.12a3.11,3.11,0,1,1-3.11-3.1,2.79,2.79,0,0,1,1,.18V18.46a1.05,1.05,0,0,1,1-1.06,1.08,1.08,0,0,1,.75.31l2.81,2.8A1.09,1.09,0,0,1,28.21,22Z" />
</svg>