<svg id="Layer_1" data-name="Layer 1" xmlns="http://www.w3.org/2000/svg" viewBox="0 0 48 48">
    <defs>
        <style>
            .image-cs-1,.image-cs-2,.cls-3{fill:#17766b;}.image-cs-1{opacity:0.2;}.image-cs-2{opacity:0.6;}</style>
    </defs>
    <circle class="image-cs-1" cx="24" cy="24" r="24" />
    <path class="image-cs-2"
        d="M12.47,30l3.61-3.32a1.4,1.4,0,0,1,1.67-.17l2,1.19a1.39,1.39,0,0,0,1.59-.11l4.08-3.22a1.4,1.4,0,0,1,1.83.08l8.32,7.87a1.39,1.39,0,0,1,.44,1v1.19a1.4,1.4,0,0,1-1.4,1.4H13.41a1.4,1.4,0,0,1-1.4-1.4V31.07A1.41,1.41,0,0,1,12.47,30Z" />
    <path class="cls-3"
        d="M34.58,12H13.41a1.4,1.4,0,0,0-1.4,1.4V24.35a1.4,1.4,0,0,0,2.35,1l1.86-1.72a.86.86,0,0,1,1.05-.1l2.61,1.65a.87.87,0,0,0,1-.06l4.93-4a.87.87,0,0,1,1.14,0l6.66,6.26a1.4,1.4,0,0,0,2.36-1v-13A1.4,1.4,0,0,0,34.58,12ZM18.67,21.46a1.77,1.77,0,1,1,1.76-1.77A1.77,1.77,0,0,1,18.67,21.46Z" />
</svg>