<svg id="Layer_1" data-name="Layer 1" xmlns="http://www.w3.org/2000/svg" viewBox="0 0 48 48">
    <defs>
        <style>
            .others-svg,.others-cls,.others-cls3{fill:#17766b;}.others-svg{opacity:0.2;}.others-cls3{opacity:0.6;}</style>
    </defs>
    <circle class="others-svg" cx="23.95" cy="24" r="24" />
    <path class="others-cls"
        d="M18,19.22h9.56a1.2,1.2,0,1,0,0-2.39H18a1.13,1.13,0,0,0-.85.34,1.15,1.15,0,0,0-.35.85,1.14,1.14,0,0,0,.35.85A1.15,1.15,0,0,0,18,19.22Zm4.39,14.34h-8A2.39,2.39,0,0,1,12,31.17V14.44a2.3,2.3,0,0,1,.7-1.69,2.26,2.26,0,0,1,1.69-.7H31.12a2.39,2.39,0,0,1,2.39,2.39v8a8.56,8.56,0,0,0-1.75-.63,7.92,7.92,0,0,0-1.84-.21h-.61a4,4,0,0,0-.58.08,3.49,3.49,0,0,0-.6-.08H18a1.13,1.13,0,0,0-.85.34,1.22,1.22,0,0,0,0,1.71A1.15,1.15,0,0,0,18,24h6.12a8.57,8.57,0,0,0-1,1.11,7.72,7.72,0,0,0-.76,1.28H18a1.2,1.2,0,0,0-1.2,1.2A1.18,1.18,0,0,0,18,28.78h3.67a4.12,4.12,0,0,0-.07.59c0,.19,0,.39,0,.61a8.9,8.9,0,0,0,.18,1.84A7.2,7.2,0,0,0,22.36,33.56Z" />
    <path class="others-cls3"
        d="M29.87,24a5.93,5.93,0,1,0,5.93,5.93A5.93,5.93,0,0,0,29.87,24Zm-3,7a1,1,0,1,1,1-1A1,1,0,0,1,26.85,31Zm3,0a1,1,0,1,1,1-1A1,1,0,0,1,29.87,31Zm3,0a1,1,0,1,1,0-2.07,1,1,0,0,1,0,2.07Z" />
</svg>