<svg id="Layer_1" data-name="Layer 1" xmlns="http://www.w3.org/2000/svg" viewBox="0 0 48 48">
    <defs>
        <style>
            .text-cs-1,.text-cs-2{fill:#17766b;}.text-cs-1{opacity:0.2;}.text-cs-3{fill:none;stroke:#17766b;stroke-linecap:round;stroke-miterlimit:10;stroke-width:2.37px;}</style>
    </defs>
    <circle class="text-cs-1" cx="24" cy="24" r="24" />
    <path class="text-cs-2" d="M22.62,29.13l-4.32.58.58-4.33Z" />
    <path class="text-cs-3"
        d="M32.48,25.4v7.92a1.16,1.16,0,0,1-.35.84,1.19,1.19,0,0,1-.84.35H14.67a1.15,1.15,0,0,1-.84-.35,1.2,1.2,0,0,1-.35-.84V16.69a1.2,1.2,0,0,1,1.19-1.19h8" />
    <path class="text-cs-2" d="M27.37,16.89l-8.49,8.49,3.76,3.75,8.48-8.48Z" />
    <path class="text-cs-2"
        d="M28.44,15.83,30,14.27a2.64,2.64,0,0,1,3.75,0,2.75,2.75,0,0,1,.57.86,2.68,2.68,0,0,1,0,2,2.75,2.75,0,0,1-.57.86l-1.57,1.56Z" />
</svg>