<svg width="161" height="161" viewBox="0 0 161 161" fill="none" xmlns="http://www.w3.org/2000/svg">
<g clip-path="url(#clip0_1863_15445)">
<path d="M36.2248 128.801V128.076C36.0722 121.882 36.3075 115.685 36.9292 109.521C37.4825 103.248 40.1424 97.3463 44.4761 92.777C49.0489 88.4452 54.9472 85.7796 61.2201 85.21C67.3856 84.606 73.5821 84.3775 79.7753 84.5257H81.2243C87.4181 84.3731 93.6153 84.6083 99.7796 85.2301C106.053 85.7834 111.954 88.4433 116.524 92.777C120.855 97.3497 123.521 103.248 124.091 109.521C124.694 115.586 124.923 121.682 124.775 127.774C134.541 125.765 143.373 120.593 149.903 113.058C156.433 105.523 160.298 96.0458 160.898 86.0931C161.498 76.1403 158.801 66.2672 153.224 58.0019C147.648 49.7366 139.502 43.5401 130.048 40.3715C128.631 28.7769 122.86 18.1545 113.903 10.6573C104.945 3.16017 93.4726 -0.650899 81.8099 -0.0033937C70.1471 0.644111 59.1668 5.70174 51.0945 14.1444C43.0223 22.587 38.462 33.783 38.338 45.4631C38.3347 50.8562 39.2957 56.2064 41.1756 61.2612C38.9754 60.8249 36.7371 60.6092 34.4941 60.6172C30.0171 60.6172 25.5839 61.499 21.4477 63.2123C17.3115 64.9256 13.5533 67.4367 10.3876 70.6025C7.22187 73.7682 4.71069 77.5264 2.99742 81.6626C1.28415 85.7988 0.402344 90.232 0.402344 94.709C0.402344 99.186 1.28415 103.619 2.99742 107.755C4.71069 111.892 7.22187 115.65 10.3876 118.815C13.5533 121.981 17.3115 124.492 21.4477 126.206C25.5839 127.919 30.0171 128.801 34.4941 128.801H36.2248Z" fill="#B0D5D0"/>
<path fill-rule="evenodd" clip-rule="evenodd" d="M80.5008 96.5996C65.3265 96.5996 57.7394 96.5996 53.01 101.309C48.2807 106.018 48.3008 113.625 48.3008 128.8C48.3008 143.974 48.3008 151.561 53.01 156.29C57.7193 161.02 65.3265 161 80.5008 161C95.675 161 103.262 161 107.992 156.29C112.721 151.581 112.701 143.974 112.701 128.8C112.701 113.625 112.701 106.038 107.992 101.309C103.282 96.5795 95.675 96.5996 80.5008 96.5996ZM95.031 121.434L84.2843 110.687C83.2754 109.694 81.9165 109.137 80.5008 109.137C79.0851 109.137 77.7262 109.694 76.7173 110.687L65.9705 121.434C65.4535 121.926 65.0367 122.514 64.7429 123.165C64.475 123.803 64.325 124.485 64.3002 125.177C64.3012 125.868 64.438 126.552 64.7027 127.19C64.9663 127.854 65.3636 128.457 65.8699 128.961C66.3767 129.469 66.9785 129.872 67.6409 130.148C68.2823 130.401 68.9639 130.538 69.6534 130.55C70.3479 130.528 71.0313 130.371 71.6659 130.088C72.3197 129.808 72.9089 129.397 73.3967 128.88L74.9664 127.31V142.968C74.9664 144.393 75.5325 145.759 76.5402 146.767C77.5479 147.775 78.9147 148.341 80.3398 148.341C81.7649 148.341 83.1316 147.775 84.1393 146.767C85.147 145.759 85.7132 144.393 85.7132 142.968V127.451L87.2829 129.021C88.0311 129.815 89.0026 130.364 90.0691 130.594C91.1356 130.825 92.2469 130.727 93.2563 130.312C94.2658 129.898 95.1259 129.187 95.723 128.274C96.3201 127.361 96.6262 126.288 96.6008 125.197C96.588 123.786 96.0248 122.436 95.031 121.434Z" fill="#17766B"/>
</g>
<defs>
<clipPath id="clip0_1863_15445">
<rect width="161" height="161" fill="white"/>
</clipPath>
</defs>
</svg>
