<svg id="Layer_1" data-name="Layer 1" xmlns="http://www.w3.org/2000/svg" viewBox="0 0 160 40"><defs><style>.cls-1{fill:#fff;}</style></defs><path class="cls-1" d="M53.23,3.89,49.09,29.13a1.39,1.39,0,0,1-.44.8,1.33,1.33,0,0,1-.85.31H22.45a1.33,1.33,0,0,1-.55-.12,1.37,1.37,0,0,1-.45-.35,1.26,1.26,0,0,1-.26-.5,1.37,1.37,0,0,1,0-.57l.52-3.16a37.38,37.38,0,0,0,5.89-.29c12-1.57,18-7.29,20.28-10.19l-13.61-3h0l-4.56-1L30.34,15a36.81,36.81,0,0,1-7.55,3.74l2.5-15.26a1.35,1.35,0,0,1,.45-.79,1.28,1.28,0,0,1,.85-.32H51.93a1.3,1.3,0,0,1,.55.12,1.19,1.19,0,0,1,.45.35,1.29,1.29,0,0,1,.27.5A1.37,1.37,0,0,1,53.23,3.89Z"/><path class="cls-1" d="M33.49,32.34l-.69,4.2a1.32,1.32,0,0,1-1.29,1.11H6.17a1.3,1.3,0,0,1-.55-.12,1.19,1.19,0,0,1-.45-.35,1.29,1.29,0,0,1-.27-.5,1.42,1.42,0,0,1,0-.58L7,23A31.05,31.05,0,0,1,.37,18.68,1.08,1.08,0,0,1,0,18.06a1,1,0,0,1,.11-.69,1,1,0,0,1,.53-.47,1.05,1.05,0,0,1,.7,0l.11.05h0A27.2,27.2,0,0,0,7.68,19L9,10.86A1.32,1.32,0,0,1,10.3,9.75H22.16l-1.4,8.54-.19,1.14A27.61,27.61,0,0,1,1,17.88a33.81,33.81,0,0,0,18.55,7.53l-.17,1-.31,1.92a3.32,3.32,0,0,0,.08,1.47A3.45,3.45,0,0,0,21,32a3.47,3.47,0,0,0,1.42.32Z"/><path class="cls-1" d="M65.28,9.73l5,15.59h.19l5-15.59h4.81L73.13,30.25H67.54L60.46,9.73Zm28.54,5.9a2.53,2.53,0,0,0-1-1.88,4.1,4.1,0,0,0-2.48-.68,4.68,4.68,0,0,0-1.79.3,2.57,2.57,0,0,0-1.13.82A2,2,0,0,0,87,15.37a1.75,1.75,0,0,0,.23,1A2.4,2.4,0,0,0,88,17a4.88,4.88,0,0,0,1,.51,12.58,12.58,0,0,0,1.26.37l1.84.44a12.55,12.55,0,0,1,2.47.8,7.14,7.14,0,0,1,1.94,1.23,5.13,5.13,0,0,1,1.28,1.72,5.65,5.65,0,0,1,.47,2.28,5.73,5.73,0,0,1-1,3.27,6.1,6.1,0,0,1-2.73,2.13,11,11,0,0,1-4.28.75A11.24,11.24,0,0,1,86,29.78a6.42,6.42,0,0,1-2.87-2.25A6.72,6.72,0,0,1,82,23.81h4.2a3.14,3.14,0,0,0,.59,1.72,3.35,3.35,0,0,0,1.42,1,5.72,5.72,0,0,0,2,.34,5.27,5.27,0,0,0,1.91-.32,3,3,0,0,0,1.28-.9,2.06,2.06,0,0,0,.45-1.31,1.71,1.71,0,0,0-.41-1.16,3,3,0,0,0-1.19-.8,11.7,11.7,0,0,0-1.89-.61l-2.24-.56a9.37,9.37,0,0,1-4.09-2,4.59,4.59,0,0,1-1.5-3.62,5.49,5.49,0,0,1,1-3.26,6.68,6.68,0,0,1,2.78-2.17,9.83,9.83,0,0,1,4-.78,9.53,9.53,0,0,1,4,.78A6.34,6.34,0,0,1,97,12.4a5.81,5.81,0,0,1,1,3.23Zm11.55,5.72v8.9H101.1V9.73h4.15v7.84h.18a4.4,4.4,0,0,1,1.68-2.13,5.14,5.14,0,0,1,2.92-.78,5.42,5.42,0,0,1,2.8.7,4.71,4.71,0,0,1,1.86,2,6.54,6.54,0,0,1,.66,3.1v9.8h-4.27v-9a3.07,3.07,0,0,0-.72-2.21,2.6,2.6,0,0,0-2-.79,3.11,3.11,0,0,0-1.54.37,2.53,2.53,0,0,0-1,1.08A3.54,3.54,0,0,0,105.37,21.35Zm17.73,9.19a6.38,6.38,0,0,1-2.62-.51,4.22,4.22,0,0,1-1.83-1.53A4.6,4.6,0,0,1,118,26a4.53,4.53,0,0,1,.47-2.15,3.75,3.75,0,0,1,1.28-1.4,6.08,6.08,0,0,1,1.85-.81,14.78,14.78,0,0,1,2.18-.38c.9-.09,1.62-.18,2.17-.26a2.9,2.9,0,0,0,1.19-.38.83.83,0,0,0,.37-.74v-.06a1.82,1.82,0,0,0-.6-1.47,2.45,2.45,0,0,0-1.68-.53,3,3,0,0,0-1.84.52,2.36,2.36,0,0,0-.9,1.26l-4-.32a5.42,5.42,0,0,1,1.18-2.43A5.7,5.7,0,0,1,122,15.22a8.58,8.58,0,0,1,3.25-.56,9.85,9.85,0,0,1,2.45.3,6.46,6.46,0,0,1,2.1.93,4.52,4.52,0,0,1,1.45,1.62,5,5,0,0,1,.53,2.36V30.25h-4.05V28.12h-.12a4.5,4.5,0,0,1-1,1.27,4.43,4.43,0,0,1-1.49.85A6.27,6.27,0,0,1,123.1,30.54Zm1.22-2.94a3.7,3.7,0,0,0,1.67-.37,3,3,0,0,0,1.13-1,2.64,2.64,0,0,0,.41-1.45V23.12a3,3,0,0,1-.55.24c-.23.06-.48.13-.77.19l-.86.15-.79.11a5.21,5.21,0,0,0-1.31.35,2.17,2.17,0,0,0-.87.65,1.75,1.75,0,0,0,.32,2.34A2.76,2.76,0,0,0,124.32,27.6Zm10.76,2.65V14.86h4.14v2.68h.16a4.06,4.06,0,0,1,1.42-2.16,3.66,3.66,0,0,1,2.28-.74,5.53,5.53,0,0,1,.69,0,3.78,3.78,0,0,1,.66.11v3.79a4.84,4.84,0,0,0-.84-.16,6.81,6.81,0,0,0-1-.07,3.32,3.32,0,0,0-1.68.41,2.91,2.91,0,0,0-1.16,1.12,3.16,3.16,0,0,0-.43,1.66v8.71Zm17.85.3a8.27,8.27,0,0,1-4.09-1,6.59,6.59,0,0,1-2.62-2.74,9,9,0,0,1-.92-4.22,8.9,8.9,0,0,1,.92-4.17,6.81,6.81,0,0,1,2.59-2.8,7.58,7.58,0,0,1,3.95-1,8,8,0,0,1,2.84.49,6.33,6.33,0,0,1,2.31,1.45,6.7,6.7,0,0,1,1.54,2.45,9.64,9.64,0,0,1,.55,3.43v1.17H147V21h9a3.23,3.23,0,0,0-.4-1.63,2.82,2.82,0,0,0-1.11-1.11,3.15,3.15,0,0,0-1.64-.42,3.3,3.3,0,0,0-1.72.46A3.08,3.08,0,0,0,150,19.49a3.27,3.27,0,0,0-.43,1.65v2.52a4.31,4.31,0,0,0,.42,2,3,3,0,0,0,1.21,1.29,3.65,3.65,0,0,0,1.85.45,4.19,4.19,0,0,0,1.31-.2,2.92,2.92,0,0,0,1-.6,2.69,2.69,0,0,0,.64-1l3.95.26a5.41,5.41,0,0,1-1.23,2.49A6.18,6.18,0,0,1,156.29,30,9,9,0,0,1,152.93,30.55Z"/></svg>