<svg id="Layer_1" data-name="Layer 1" xmlns="http://www.w3.org/2000/svg" viewBox="0 0 200 50">
    <defs>
        <style>.cls-log-vshare{fill:#30998c;}.cls-log2-vshare2{fill:#17766b;}</style>
    </defs>
    <path class="cls-log-vshare"
        d="M66.53,4.87,61.36,36.42a1.67,1.67,0,0,1-.55,1,1.65,1.65,0,0,1-1.06.39H28.07a1.62,1.62,0,0,1-.69-.15,1.65,1.65,0,0,1-.89-1.06,1.56,1.56,0,0,1,0-.71l.65-4a46.43,46.43,0,0,0,7.36-.37c15-2,22.47-9.11,25.35-12.73l-17-3.76h0l-5.71-1.25.84,4.9a45.42,45.42,0,0,1-9.43,4.68L31.62,4.33a1.66,1.66,0,0,1,.56-1,1.63,1.63,0,0,1,1.06-.39H64.92a1.65,1.65,0,0,1,.69.15,1.79,1.79,0,0,1,.56.43,1.9,1.9,0,0,1,.33.63A1.75,1.75,0,0,1,66.53,4.87Z" />
    <path class="cls-log2-vshare2"
        d="M41.86,40.43,41,45.67a1.69,1.69,0,0,1-.55,1,1.65,1.65,0,0,1-1.06.39H7.71A1.65,1.65,0,0,1,7,46.91a1.59,1.59,0,0,1-.56-.43,1.57,1.57,0,0,1-.33-.64,1.55,1.55,0,0,1,0-.71L8.78,28.68A38.48,38.48,0,0,1,.46,23.35a1.33,1.33,0,0,1-.3-1.64,1.29,1.29,0,0,1,1.53-.62.59.59,0,0,1,.14.06h0A34.34,34.34,0,0,0,9.6,23.73l1.66-10.15a1.6,1.6,0,0,1,.56-1,1.59,1.59,0,0,1,1.06-.4H27.69L26,22.86l-.24,1.43A34.5,34.5,0,0,1,1.3,22.34a42.14,42.14,0,0,0,23.19,9.43l-.21,1.29-.39,2.39A4.4,4.4,0,0,0,24,37.29a4.54,4.54,0,0,0,.85,1.63A4.3,4.3,0,0,0,26.29,40a4,4,0,0,0,1.78.4Z" />
    <path
        d="M81.6,12.16l6.2,19.49H88l6.21-19.49h6L91.42,37.82h-7L75.57,12.16Zm35.67,7.38A3.18,3.18,0,0,0,116,17.18a5.1,5.1,0,0,0-3.09-.84,5.94,5.94,0,0,0-2.25.38,3.18,3.18,0,0,0-1.4,1,2.44,2.44,0,0,0-.47,1.48,2.06,2.06,0,0,0,.28,1.2,3,3,0,0,0,.89.89,6.14,6.14,0,0,0,1.31.64,12,12,0,0,0,1.57.45l2.31.56a15.89,15.89,0,0,1,3.08,1,9.25,9.25,0,0,1,2.43,1.54,6.31,6.31,0,0,1,1.59,2.15,6.78,6.78,0,0,1,.59,2.85,7.11,7.11,0,0,1-1.2,4.08,7.53,7.53,0,0,1-3.41,2.67,13.62,13.62,0,0,1-5.35.94,14.21,14.21,0,0,1-5.41-1,8,8,0,0,1-3.58-2.82,8.34,8.34,0,0,1-1.34-4.65h5.25a3.93,3.93,0,0,0,.73,2.16,4.33,4.33,0,0,0,1.77,1.29,7.08,7.08,0,0,0,2.52.42,6.4,6.4,0,0,0,2.39-.4,3.66,3.66,0,0,0,1.59-1.11,2.58,2.58,0,0,0,.57-1.64,2.11,2.11,0,0,0-.52-1.46,3.91,3.91,0,0,0-1.47-1,14.48,14.48,0,0,0-2.37-.75l-2.8-.7a11.73,11.73,0,0,1-5.12-2.47,5.74,5.74,0,0,1-1.87-4.53,6.75,6.75,0,0,1,1.24-4.07,8.49,8.49,0,0,1,3.47-2.72,12.28,12.28,0,0,1,5-1,11.86,11.86,0,0,1,5,1,7.92,7.92,0,0,1,3.33,2.72,7.12,7.12,0,0,1,1.23,4Zm14.44,7.15V37.82h-5.34V12.16h5.19V22h.22a5.45,5.45,0,0,1,2.11-2.67,6.4,6.4,0,0,1,3.65-1,6.7,6.7,0,0,1,3.49.88,5.91,5.91,0,0,1,2.33,2.49,8.19,8.19,0,0,1,.83,3.87V37.82h-5.34V26.52a3.87,3.87,0,0,0-.9-2.77,3.26,3.26,0,0,0-2.53-1,3.91,3.91,0,0,0-1.93.46,3.26,3.26,0,0,0-1.3,1.35A4.61,4.61,0,0,0,131.71,26.69Zm22.17,11.49a8,8,0,0,1-3.29-.64,5.22,5.22,0,0,1-2.28-1.92,5.74,5.74,0,0,1-.82-3.18,5.52,5.52,0,0,1,.59-2.69,4.76,4.76,0,0,1,1.6-1.76A7.92,7.92,0,0,1,152,27a17.65,17.65,0,0,1,2.73-.47q1.68-.18,2.7-.33a3.8,3.8,0,0,0,1.49-.48,1,1,0,0,0,.47-.92v-.08a2.3,2.3,0,0,0-.75-1.84,3.13,3.13,0,0,0-2.11-.65,3.7,3.7,0,0,0-2.29.64,2.91,2.91,0,0,0-1.13,1.58l-4.94-.4a6.82,6.82,0,0,1,1.48-3,7.17,7.17,0,0,1,2.85-2,11,11,0,0,1,4.06-.7,12.41,12.41,0,0,1,3.07.38,8.15,8.15,0,0,1,2.61,1.16,5.72,5.72,0,0,1,1.82,2,6.15,6.15,0,0,1,.66,2.95v13h-5.06V35.15h-.15a5.43,5.43,0,0,1-1.24,1.59,5.65,5.65,0,0,1-1.86,1.06A7.5,7.5,0,0,1,153.88,38.18Zm1.53-3.68a4.52,4.52,0,0,0,2.08-.47,3.62,3.62,0,0,0,1.41-1.27,3.33,3.33,0,0,0,.51-1.82v-2a2.58,2.58,0,0,1-.68.3l-1,.24-1.08.18-1,.14a6.6,6.6,0,0,0-1.65.44A2.69,2.69,0,0,0,153,31a2.07,2.07,0,0,0-.38,1.26,1.92,1.92,0,0,0,.79,1.66A3.41,3.41,0,0,0,155.41,34.5Zm13.45,3.32V18.57H174v3.36h.2A5,5,0,0,1,176,19.22a4.67,4.67,0,0,1,2.85-.92,6.72,6.72,0,0,1,.87.05,6.89,6.89,0,0,1,.81.13v4.74a7.72,7.72,0,0,0-1-.2,9,9,0,0,0-1.21-.09,4.21,4.21,0,0,0-2.11.52,3.75,3.75,0,0,0-1.45,1.4,4,4,0,0,0-.53,2.08V37.82Zm22.31.37a10.34,10.34,0,0,1-5.12-1.2,8.28,8.28,0,0,1-3.28-3.43,11.36,11.36,0,0,1-1.15-5.28,11.23,11.23,0,0,1,1.15-5.21,8.58,8.58,0,0,1,3.25-3.5A9.51,9.51,0,0,1,191,18.32a10,10,0,0,1,3.55.62,7.87,7.87,0,0,1,2.88,1.81,8.22,8.22,0,0,1,1.93,3.06,12.12,12.12,0,0,1,.69,4.28v1.47H183.75V26.25H195a4,4,0,0,0-.51-2,3.51,3.51,0,0,0-1.39-1.39,4,4,0,0,0-2-.51,4,4,0,0,0-2.15.56,3.94,3.94,0,0,0-1.46,1.49,4.25,4.25,0,0,0-.54,2.07v3.14a5.39,5.39,0,0,0,.53,2.47,3.94,3.94,0,0,0,1.52,1.61,4.59,4.59,0,0,0,2.31.56,4.94,4.94,0,0,0,1.63-.25,3.43,3.43,0,0,0,1.27-.75A3.32,3.32,0,0,0,195,32l4.94.32a6.76,6.76,0,0,1-1.54,3.11,7.83,7.83,0,0,1-3,2.06A11.32,11.32,0,0,1,191.17,38.19Z" />
</svg>