<svg width="80" height="80" viewBox="0 0 80 80" fill="none" xmlns="http://www.w3.org/2000/svg">
<g clip-path="url(#clip0_1230_14500)">
<path d="M2.51764 35.6627C1.00997 36.3211 0.314719 38.0713 0.967264 39.5655L8.06577 55.8199C8.71831 57.3141 10.4746 57.9936 11.9823 57.3352L22.9162 52.5602C24.4239 51.9018 25.1191 50.1516 24.4666 48.6574L19.1427 36.4666L13.6757 38.8541C12.9198 39.1843 12.0447 38.8457 11.7175 38.0965L9.35131 32.6783L2.51764 35.6627ZM10.718 32.0815L13.0842 37.4996L18.5511 35.1121L10.718 32.0815ZM9.2777 45.6688L12.0713 48.9447L11.7517 44.533C11.7194 44.0632 11.9879 43.6183 12.4236 43.4281C12.8592 43.2378 13.3662 43.339 13.6907 43.6862L16.7096 46.9191L16.1968 42.6472C16.1243 42.0387 16.5635 41.484 17.1762 41.408C17.7889 41.332 18.3441 41.7649 18.4166 42.3733L19.3242 50.0413C19.3809 50.5205 19.1241 50.9805 18.6836 51.1829C18.2431 51.3854 17.7233 51.2898 17.3951 50.9341L14.2069 47.5232L14.5463 52.1782C14.5822 52.6565 14.3009 53.107 13.853 53.2925C13.4051 53.478 12.8889 53.3557 12.5802 52.9865L7.5724 47.1091C7.17533 46.6424 7.23514 45.9409 7.70731 45.5432C8.17949 45.1454 8.88491 45.2003 9.28197 45.667L9.2777 45.6688Z" fill="#17766B" fill-opacity="0.3"/>
<path d="M32.2221 44.3941H46.6032C47.2389 44.3941 47.8485 44.145 48.298 43.7015C48.7475 43.258 49.0001 42.6564 49.0001 42.0292V27.8398L41.8095 20.7451H32.2221C31.5864 20.7451 30.9767 20.9943 30.5272 21.4378C30.0777 21.8813 29.8252 22.4828 29.8252 23.11V42.0292C29.8252 42.6564 30.0777 43.258 30.5272 43.7015C30.9767 44.145 31.5864 44.3941 32.2221 44.3941ZM40.6111 23.11L46.6032 29.0223H40.6111V23.11ZM35.2181 31.3872C35.4543 31.3873 35.6881 31.4332 35.9062 31.5225C36.1244 31.6117 36.3226 31.7425 36.4895 31.9073C36.6564 32.0721 36.7888 32.2677 36.8791 32.483C36.9694 32.6983 37.0159 32.929 37.0158 33.162C37.0157 33.395 36.9691 33.6257 36.8787 33.841C36.7882 34.0562 36.6557 34.2518 36.4887 34.4165C36.3216 34.5812 36.1233 34.7118 35.9051 34.8009C35.6869 34.89 35.4531 34.9358 35.2169 34.9357C34.74 34.9356 34.2827 34.7485 33.9456 34.4156C33.6084 34.0828 33.4191 33.6314 33.4193 33.1608C33.4194 32.6903 33.6091 32.2391 33.9464 31.9064C34.2838 31.5738 34.7412 31.387 35.2181 31.3872ZM35.8173 37.2994L37.7312 38.9111L40.6111 33.7521L45.4048 40.8468H33.4205L35.8173 37.2994Z" fill="#17766B" fill-opacity="0.3"/>
<path d="M66.4329 46.4836L67.061 45.2477L65.7433 44.578L65.1152 45.814C65.0603 45.9219 64.9924 46.0227 64.9129 46.1141L63.3157 47.9518L64.126 49.3915L65.7666 49.1974L66.3097 46.8239C66.3366 46.7059 66.378 46.5916 66.4329 46.4836Z" fill="#17766B" fill-opacity="0.3"/>
<path d="M66.8238 31.0337L77.365 36.391C78.064 36.7463 78.5931 37.3646 78.8362 38.11C79.0792 38.8553 79.0162 39.6668 78.661 40.3657L70.625 56.1775C70.2697 56.8765 69.6514 57.4057 68.906 57.6487C68.1606 57.8917 67.3492 57.8287 66.6503 57.4735L56.1091 52.1161C55.4101 51.7609 54.8809 51.1426 54.6379 50.3972C54.3949 49.6518 54.4579 48.8404 54.8131 48.1415L62.8491 32.3296C63.2044 31.6307 63.8227 31.1015 64.5681 30.8585C65.3134 30.6154 66.1249 30.6785 66.8238 31.0337ZM64.4257 43.9079L63.7976 45.1439L62.1997 46.9829C62.0001 47.2132 61.8765 47.4995 61.8458 47.8027C61.8152 48.1059 61.8791 48.4112 62.0286 48.6767L62.8389 50.1164C62.982 50.3706 63.1971 50.5767 63.4571 50.7089C63.7171 50.841 64.0105 50.8933 64.3001 50.8591L65.9407 50.6649C66.2432 50.6289 66.5272 50.5004 66.7539 50.2968C66.9805 50.0932 67.1387 49.8246 67.2068 49.5277L67.7505 47.1529L68.3787 45.9169C68.5563 45.5675 68.5878 45.1618 68.4663 44.7891C68.3448 44.4164 68.0802 44.1072 67.7307 43.9296L66.4131 43.2599C66.0636 43.0823 65.6579 43.0508 65.2852 43.1723C64.9125 43.2939 64.6033 43.5585 64.4257 43.9079ZM69.4266 37.3305L68.1089 36.6608L67.4392 37.9785L68.7569 38.6481L68.0872 39.9658L66.7696 39.2961L66.0999 40.6138L67.4176 41.2834L66.7479 42.6011L68.7244 43.6056L69.394 42.288L68.0764 41.6183L68.7461 40.3006L70.0637 40.9703L70.7334 39.6526L69.4157 38.983L70.0854 37.6653L71.403 38.335L72.0727 37.0173L70.7551 36.3477L71.4247 35.03L69.4483 34.0255L68.7786 35.3432L70.0962 36.0128L69.4266 37.3305Z" fill="#17766B" fill-opacity="0.3"/>
</g>
<defs>
<clipPath id="clip0_1230_14500">
<rect width="80" height="80" fill="white"/>
</clipPath>
</defs>
</svg>
