<svg width="80" height="80" viewBox="0 0 80 80" fill="none" xmlns="http://www.w3.org/2000/svg">
<path opacity="0.2" fill-rule="evenodd" clip-rule="evenodd" d="M48.8735 13.4434H44.4305C40.4902 13.4439 36.6616 14.7533 33.5462 17.1658C30.4308 19.5784 28.205 22.9574 27.2184 26.7723H26.6586C21.9452 26.7723 17.4249 28.6447 14.092 31.9776C10.7591 35.3104 8.88672 39.8308 8.88672 44.5442C8.88672 49.2576 10.7591 53.7779 14.092 57.1108C17.4249 60.4437 21.9452 62.3161 26.6586 62.3161H62.2024C66.5723 62.3225 70.7913 60.7186 74.0534 57.811C77.3155 54.9033 79.392 50.8957 79.8862 46.5539C80.3804 42.212 79.2575 37.8403 76.7322 34.274C74.2069 30.7077 70.4562 28.1968 66.1967 27.221C65.2917 23.3045 63.0863 19.8102 59.9403 17.3081C56.7942 14.8059 52.8932 13.4436 48.8735 13.4434Z" fill="#17766B"/>
<path fill-rule="evenodd" clip-rule="evenodd" d="M39.9868 9H35.5438C31.6035 9.00052 27.7749 10.3099 24.6595 12.7225C21.5441 15.135 19.3183 18.5141 18.3317 22.3289H17.7719C13.0585 22.3289 8.53815 24.2013 5.20527 27.5342C1.87239 30.8671 0 35.3874 0 40.1008C0 44.8142 1.87239 49.3346 5.20527 52.6675C8.53815 56.0003 13.0585 57.8727 17.7719 57.8727H53.3157C57.6856 57.8791 61.9046 56.2752 65.1667 53.3676C68.4288 50.4599 70.5053 46.4524 70.9995 42.1105C71.4936 37.7687 70.3708 33.397 67.8455 29.8307C65.3202 26.2643 61.5695 23.7534 57.3099 22.7777C56.4049 18.8611 54.1996 15.3668 51.0535 12.8647C47.9075 10.3626 44.0065 9.00026 39.9868 9ZM21.775 26.7719L22.6325 23.4397C23.3729 20.5784 25.0426 18.044 27.3796 16.2346C29.7165 14.4252 32.5883 13.4433 35.5438 13.443H39.9868C46.2292 13.443 51.6007 17.7749 52.978 23.7729L53.6001 26.4831L56.3103 27.1096C59.4961 27.8504 62.2985 29.7365 64.1843 32.4089C66.0702 35.0814 66.9079 38.3538 66.5381 41.6037C66.1684 44.8536 64.6169 47.8542 62.179 50.0347C59.741 52.2152 56.5865 53.4235 53.3157 53.4298H17.7719C14.2368 53.4298 10.8466 52.0255 8.34693 49.5258C5.84727 47.0261 4.44298 43.6359 4.44298 40.1008C4.44298 36.5658 5.84727 33.1755 8.34693 30.6759C10.8466 28.1762 14.2368 26.7719 17.7719 26.7719H21.775Z" fill="#17766B"/>
<path d="M39.9879 68.9793C39.9879 69.5685 39.7539 70.1336 39.3372 70.5502C38.9206 70.9668 38.3556 71.2008 37.7664 71.2008C37.1772 71.2008 36.6122 70.9668 36.1956 70.5502C35.779 70.1336 35.5449 69.5685 35.5449 68.9793V35.657C35.5449 35.0679 35.779 34.5028 36.1956 34.0862C36.6122 33.6696 37.1772 33.4355 37.7664 33.4355C38.3556 33.4355 38.9206 33.6696 39.3372 34.0862C39.7539 34.5028 39.9879 35.0679 39.9879 35.657V68.9793Z" fill="#17766B"/>
<path d="M28.0454 46.2757C27.5832 46.611 27.0096 46.7555 26.4437 46.679C25.8778 46.6026 25.3631 46.3112 25.0063 45.8653C24.6496 45.4194 24.4783 44.8532 24.528 44.2844C24.5776 43.7155 24.8444 43.1876 25.273 42.8102L36.3804 33.9243C36.8427 33.589 37.4163 33.4445 37.9822 33.521C38.5481 33.5974 39.0628 33.8888 39.4195 34.3347C39.7763 34.7806 39.9476 35.3468 39.8979 35.9156C39.8483 36.4845 39.5815 37.0124 39.1529 37.3898L28.0454 46.2757Z" fill="#17766B"/>
<path d="M50.2579 42.8112C50.6865 43.1886 50.9533 43.7165 51.0029 44.2854C51.0526 44.8542 50.8813 45.4204 50.5246 45.8663C50.1678 46.3122 49.6531 46.6036 49.0872 46.68C48.5213 46.7565 47.9477 46.612 47.4855 46.2767L36.378 37.3908C36.1347 37.2143 35.9298 36.9903 35.7756 36.7323C35.6214 36.4743 35.5212 36.1878 35.4809 35.8899C35.4407 35.5921 35.4613 35.2892 35.5416 34.9995C35.6218 34.7099 35.76 34.4395 35.9477 34.2048C36.1355 33.9701 36.3689 33.776 36.6339 33.6341C36.8988 33.4923 37.1898 33.4056 37.4892 33.3795C37.7887 33.3534 38.0903 33.3883 38.3758 33.4821C38.6613 33.5759 38.9249 33.7267 39.1504 33.9253L50.2579 42.8112Z" fill="#17766B"/>
</svg>
