<svg width="627" height="436" viewBox="0 0 627 436" fill="none" xmlns="http://www.w3.org/2000/svg">
<path d="M626.784 19.0532L575.599 330.808C574.97 334.637 573.014 338.117 570.081 340.626C567.147 343.136 563.426 344.513 559.581 344.513H245.9C243.545 344.514 241.219 343.997 239.082 343C236.945 342.002 235.048 340.547 233.524 338.735C232 336.924 230.885 334.799 230.256 332.509C229.627 330.218 229.499 327.817 229.882 325.472L236.284 286.444C260.655 287.203 285.046 285.988 309.224 282.81C457.799 263.412 531.665 192.759 560.202 157.026L391.724 119.918H391.673L335.188 107.512L343.492 155.964C319.633 171.351 287.831 188.811 250.115 202.228L281.068 13.7045C281.694 9.87424 283.649 6.39337 286.583 3.88314C289.517 1.37291 293.24 -0.00333814 297.086 6.08038e-06H610.773C613.127 0.00186203 615.454 0.520537 617.59 1.52007C619.726 2.51959 621.622 3.97607 623.145 5.78855C624.668 7.60103 625.782 9.72615 626.411 12.0166C627.039 14.3071 627.167 16.7081 626.784 19.0532Z" fill="url(#paint0_linear_1_175)" fill-opacity="0.08"/>
<path d="M382.511 370.472L374.004 422.296C373.376 426.12 371.424 429.596 368.496 432.106C365.568 434.615 361.853 435.995 358.012 436H44.331C41.9733 436 39.6439 435.481 37.5047 434.481C35.3655 433.48 33.4678 432.021 31.9435 430.206C30.4192 428.39 29.3049 426.261 28.6779 423.967C28.051 421.673 27.9264 419.269 28.3129 416.921L54.9738 254.412C5.45531 230.381 -23.627 205.058 -27.4302 201.661C-29.7063 199.725 -31.2461 197.052 -31.7864 194.098C-32.3268 191.143 -31.8343 188.092 -30.3931 185.463C-28.9519 182.835 -26.6513 180.793 -23.8843 179.686C-21.1173 178.58 -18.0555 178.477 -15.2218 179.396C-14.7546 179.532 -14.2989 179.705 -13.8589 179.914C-13.8135 179.934 -13.7708 179.959 -13.7322 179.991C10.7646 191.502 36.5249 200.048 63.0114 205.448L79.4922 105.153C80.1214 101.324 82.0768 97.8449 85.0103 95.3351C87.9438 92.8253 91.6647 91.4481 95.5103 91.4489H242.215L222.596 210.951C154.258 229.985 70.32 233.408 -19.1201 191.757C-17.5227 193.235 68.4944 271.789 210.464 284.867L208.385 297.605L204.499 321.22C203.506 327.284 203.832 333.493 205.454 339.417C207.077 345.34 209.957 350.837 213.896 355.524C217.834 360.212 222.736 363.978 228.261 366.561C233.786 369.145 239.802 370.483 245.891 370.485L382.511 370.472Z" fill="url(#paint1_linear_1_175)" fill-opacity="0.08"/>
<defs>
<linearGradient id="paint0_linear_1_175" x1="-184.511" y1="156.252" x2="698.798" y2="561.278" gradientUnits="userSpaceOnUse">
<stop stop-color="#FBFBFB"/>
<stop offset="0.0001" stop-color="#444444"/>
<stop offset="1" stop-color="#FBFBFB" stop-opacity="0"/>
</linearGradient>
<linearGradient id="paint1_linear_1_175" x1="-184.511" y1="156.252" x2="698.798" y2="561.278" gradientUnits="userSpaceOnUse">
<stop stop-color="#FBFBFB"/>
<stop offset="0.0001" stop-color="#444444"/>
<stop offset="1" stop-color="#FBFBFB" stop-opacity="0"/>
</linearGradient>
</defs>
</svg>
