<svg width="160" height="160" viewBox="0 0 161 161" fill="none" xmlns="http://www.w3.org/2000/svg">
    <path d="M128.377 26.4443V148.301H14.1074V0H101.953L128.377 26.4443Z" fill="#B0D5D0" />
    <path d="M101.953 0L128.377 26.4443H101.953V0Z" fill="#17766B" />
    <path
        d="M71.7661 36.8887H37.3926C34.2472 36.8887 31.6973 39.4386 31.6973 42.584V42.6042C31.6973 45.7496 34.2472 48.2995 37.3926 48.2995H71.7661C74.9116 48.2995 77.4615 45.7496 77.4615 42.6042V42.584C77.4615 39.4386 74.9116 36.8887 71.7661 36.8887Z"
        fill="white" />
    <path
        d="M105.093 58.9062H37.3926C34.2472 58.9062 31.6973 61.4562 31.6973 64.6016V64.6218C31.6973 67.7672 34.2472 70.3171 37.3926 70.3171H105.093C108.239 70.3171 110.789 67.7672 110.789 64.6218V64.6016C110.789 61.4562 108.239 58.9062 105.093 58.9062Z"
        fill="white" />
    <path
        d="M90.1 80.9434H37.3926C34.2472 80.9434 31.6973 83.4933 31.6973 86.6387V86.6589C31.6973 89.8043 34.2472 92.3542 37.3926 92.3542H90.1C93.2455 92.3542 95.7954 89.8043 95.7954 86.6589V86.6387C95.7954 83.4933 93.2455 80.9434 90.1 80.9434Z"
        fill="white" />
    <path
        d="M115.176 161L110.567 156.814C94.2255 142.002 83.4385 132.201 83.4385 120.227C83.4142 117.929 83.849 115.649 84.7173 113.521C85.5856 111.393 86.8699 109.46 88.495 107.835C90.12 106.21 92.0532 104.926 94.1811 104.057C96.3089 103.189 98.5888 102.754 100.887 102.779C103.6 102.803 106.278 103.404 108.741 104.542C111.205 105.68 113.398 107.329 115.176 109.38C116.948 107.328 119.137 105.678 121.598 104.539C124.058 103.401 126.733 102.801 129.444 102.779C131.744 102.752 134.026 103.184 136.156 104.051C138.286 104.919 140.222 106.202 141.849 107.828C143.476 109.453 144.763 111.387 145.632 113.516C146.502 115.646 146.937 117.927 146.913 120.227C146.913 132.201 136.126 142.002 119.784 156.814L115.176 161Z"
        fill="#17766B" />
</svg>