<svg width="160" height="160" viewBox="0 0 161 161" fill="none" xmlns="http://www.w3.org/2000/svg">
    <path
        d="M24.5117 44.1543H136.487V125.962C136.487 135.255 132.796 144.167 126.225 150.738C119.654 157.309 110.742 161 101.45 161H59.5493C50.2568 161 41.3448 157.309 34.774 150.738C28.2032 144.167 24.5117 135.255 24.5117 125.962V44.1543Z"
        fill="#B0D5D0" />
    <path
        d="M139.003 27.25H21.9758C17.1632 27.25 13.2617 31.1514 13.2617 35.9641C13.2617 40.7768 17.1632 44.6783 21.9758 44.6783H139.003C143.815 44.6783 147.717 40.7768 147.717 35.9641C147.717 31.1514 143.815 27.25 139.003 27.25Z"
        fill="#17766B" />
    <path
        d="M108.998 0H51.9837C47.171 0 43.2695 3.90145 43.2695 8.71412C43.2695 13.5268 47.171 17.4282 51.9837 17.4282H108.998C113.81 17.4282 117.712 13.5268 117.712 8.71412C117.712 3.90145 113.81 0 108.998 0Z"
        fill="#B0D5D0" />
    <path
        d="M70.9414 131.074V74.0598C70.9414 69.2471 67.04 65.3457 62.2273 65.3457C57.4146 65.3457 53.5132 69.2471 53.5132 74.0598V131.074C53.5132 135.887 57.4146 139.788 62.2273 139.788C67.04 139.788 70.9414 135.887 70.9414 131.074Z"
        fill="white" />
    <path
        d="M107.488 131.074V74.0598C107.488 69.2471 103.587 65.3457 98.7742 65.3457C93.9615 65.3457 90.06 69.2471 90.06 74.0598V131.074C90.06 135.887 93.9615 139.788 98.7742 139.788C103.587 139.788 107.488 135.887 107.488 131.074Z"
        fill="white" />
</svg>